<?xml version="1.0" encoding="utf-8"?>
<!-- Generator: Adobe Illustrator 19.2.0, SVG Export Plug-In . SVG Version: 6.00 Build 0)  -->
<svg version="1.1" id="Layer_1" xmlns="http://www.w3.org/2000/svg" xmlns:xlink="http://www.w3.org/1999/xlink" x="0px" y="0px"
	 viewBox="0 0 420 338" style="enable-background:new 0 0 420 338;" xml:space="preserve">
<style type="text/css">
	.st0{fill:#FFFFFF;stroke:#EFF1F5;stroke-width:2;}
	.st1{fill:none;stroke:#00A1E0;stroke-width:2;}
	.st2{fill:#00A1E0;}
	.st3{fill:#F0F4FA;}
	.st4{fill:#FAFBFD;}
	.st5{fill:#8AD358;}
	.st6{fill:#50C8E3;}
	.st7{fill:#B8AC95;}
	.st8{fill:#36BF7E;}
	.st9{fill:#FFFFFF;}
	.st10{fill:#FFC059;}
	.st11{fill:#CBD7E7;}
	.st12{fill:#E2E8F0;}
	.st13{fill:#E1E8F0;}
	.st14{fill:#0AC97E;}
	.st15{fill:#FFFFFF;stroke:#EDF1F7;stroke-width:2;}
	.st16{fill:#EDF1F7;}
	.st17{fill:#F3F6FA;}
	.st18{fill:none;stroke:#FFFFFF;stroke-width:2;}
	.st19{fill:none;stroke:#FFFFFF;stroke-width:1.5;}
	.st20{fill:#90DAF0;}
	.st21{fill:#F4F7FB;}
	.st22{fill:#EFF2F8;}
	.st23{fill:#E3E7ED;}
	.st24{fill:#F5F6F8;}
	.st25{fill:#80D0EF;}
	.st26{fill:#DADFE6;}
	.st27{fill:#231F20;}
	.st28{fill:#F9A51A;}
</style>
<g transform="translate(1 1)">
	<path class="st0" d="M4,0h410c2.2,0,4,1.8,4,4v328c0,2.2-1.8,4-4,4H4c-2.2,0-4-1.8-4-4V4C0,1.8,1.8,0,4,0z"/>
	<path class="st1" d="M18,14l-3,3l3,3"/>
	<path class="st2" d="M16,16h7v2h-7V16z"/>
	<path class="st3" d="M1,33h416v80H1V33z"/>
	<path class="st4" d="M417,303V113H1v190"/>
	<circle class="st5" cx="119.5" cy="319.5" r="7.5"/>
	<circle class="st6" cx="164.5" cy="319.5" r="7.5"/>
	<circle class="st7" cx="209.5" cy="319.5" r="7.5"/>
	<circle class="st8" cx="254.5" cy="319.5" r="7.5"/>
	<circle class="st2" cx="299.5" cy="319.5" r="7.5"/>
	<circle class="st9" cx="295.5" cy="319.5" r="1"/>
	<circle class="st9" cx="299.5" cy="319.5" r="1"/>
	<circle class="st9" cx="303.5" cy="319.5" r="1"/>
	<path class="st10" d="M16,61h18c1.7,0,3,1.3,3,3v18c0,1.7-1.3,3-3,3H16c-1.7,0-3-1.3-3-3V64C13,62.3,14.3,61,16,61z"/>
	<path class="st9" d="M30.9,71.2c-0.6,0.8-1.6,1.5-2.7,1.5c-1.6,0-2.3-2.1-2.6-3l-0.1-0.4c0.5-0.2,0.8-0.6,0.8-1.1
		c0-0.7-0.5-1.2-1.2-1.2c-0.7,0-1.2,0.5-1.2,1.2c0,0.5,0.3,0.9,0.7,1.1c-0.4,1.2-1.3,3.4-2.7,3.4c-1.5,0-2.3-0.9-2.7-1.7
		c0.1-0.2,0.2-0.4,0.2-0.6c0-0.7-0.5-1.2-1.2-1.2S17,69.7,17,70.3c0,0.7,0.5,1.2,1.2,1.2l0.1,0l1.7,4.5H30l1.9-4.5
		c0.6,0,1.1-0.5,1.1-1.2c0-0.7-0.5-1.2-1.2-1.2c-0.6,0-1.2,0.5-1.2,1.2C30.6,70.7,30.7,70.9,30.9,71.2L30.9,71.2z M20,77h10
		l-0.5,1.5h-9L20,77z"/>
	<path class="st11" d="M50,65h58c0.6,0,1,0.4,1,1v3c0,0.6-0.4,1-1,1H50c-0.6,0-1-0.4-1-1v-3C49,65.4,49.4,65,50,65z"/>
	<path class="st12" d="M50,76h98c0.6,0,1,0.4,1,1v3c0,0.6-0.4,1-1,1H50c-0.6,0-1-0.4-1-1v-3C49,76.4,49.4,76,50,76z"/>
	<path class="st13" d="M14,110h22c0.6,0,1,0.4,1,1v1c0,0.6-0.4,1-1,1H14c-0.6,0-1-0.4-1-1v-1C13,110.4,13.4,110,14,110z"/>
	<path class="st13" d="M86,110h22c0.6,0,1,0.4,1,1v1c0,0.6-0.4,1-1,1H86c-0.6,0-1-0.4-1-1v-1C85,110.4,85.4,110,86,110z"/>
	<path class="st2" d="M50,110h22c0.6,0,1,0.4,1,1v1c0,0.6-0.4,1-1,1H50c-0.6,0-1-0.4-1-1v-1C49,110.4,49.4,110,50,110z"/>
	<path class="st14" d="M16,125h59l6,9l-6,9H16c-1.7,0-3-1.4-3-3v-12C13,126.3,14.4,125,16,125z"/>
	<path class="st14" d="M84,134l-6-9h62l6,9l-6,9H78"/>
	<path class="st14" d="M149,134l-6-9h62l6,9l-6,9h-62"/>
	<path class="st2" d="M214,134l-6-9h62l6,9l-6,9h-62"/>
	<path class="st15" d="M275,142l5-8l-5-8h60l5,8l-5,8H275z"/>
	<path class="st15" d="M345,134l-5-8h61c1.6,0,3,1.3,3,3v10c0,1.6-1.3,3-3,3h-61.3h0.3L345,134L345,134z"/>
	<path class="st16" d="M15,155h194c1.7,0,3,1.3,3,3v130c0,1.7-1.3,3-3,3H15c-1.7,0-3-1.3-3-3V158C12,156.3,13.3,155,15,155z"/>
	<path class="st9" d="M15,156h194c1.1,0,2,0.9,2,2v129c0,1.1-0.9,2-2,2H15c-1.1,0-2-0.9-2-2V158C13,156.9,13.9,156,15,156z"/>
	<path class="st17" d="M1,303h416v1H1V303z"/>
	<path class="st18" d="M40,134l3,2.5l5-5.5 M108,134l3,2.5l5-5.5"/>
	<path class="st19" d="M251.5,319.5l1.9,2l4.1-4.5"/>
	<path class="st18" d="M173,134l3,2.5l5-5.5"/>
	<path class="st20" d="M235.5,133h13c0.3,0,0.5,0.2,0.5,0.5v1c0,0.3-0.2,0.5-0.5,0.5h-13c-0.3,0-0.5-0.2-0.5-0.5v-1
		C235,133.2,235.2,133,235.5,133z"/>
	<path class="st16" d="M301.5,133h12c0.3,0,0.5,0.2,0.5,0.5v1c0,0.3-0.2,0.5-0.5,0.5h-12c-0.3,0-0.5-0.2-0.5-0.5v-1
		C301,133.2,301.2,133,301.5,133z"/>
	<path class="st16" d="M367.5,133h12c0.3,0,0.5,0.2,0.5,0.5v1c0,0.3-0.2,0.5-0.5,0.5h-12c-0.3,0-0.5-0.2-0.5-0.5v-1
		C367,133.2,367.2,133,367.5,133z"/>
	<path class="st21" d="M13,199h198v2H13V199z"/>
	<path class="st22" d="M224,199h181v2H224V199z"/>
	<path class="st21" d="M13,244h198v2H13V244z"/>
	<path class="st23" d="M26,172h68c0.6,0,1,0.4,1,1v1c0,0.6-0.4,1-1,1H26c-0.6,0-1-0.4-1-1v-1C25,172.4,25.4,172,26,172z"/>
	<path class="st24" d="M26,180h58c0.6,0,1,0.4,1,1v1c0,0.6-0.4,1-1,1H26c-0.6,0-1-0.4-1-1v-1C25,180.4,25.4,180,26,180z"/>
	<path class="st25" d="M188,176h8c0.6,0,1,0.4,1,1v1c0,0.6-0.4,1-1,1h-8c-0.6,0-1-0.4-1-1v-1C187,176.4,187.4,176,188,176z"/>
	<path class="st23" d="M26,217h38c0.6,0,1,0.4,1,1v1c0,0.6-0.4,1-1,1H26c-0.6,0-1-0.4-1-1v-1C25,217.4,25.4,217,26,217z"/>
	<path class="st24" d="M26,225h58c0.6,0,1,0.4,1,1v1c0,0.6-0.4,1-1,1H26c-0.6,0-1-0.4-1-1v-1C25,225.4,25.4,225,26,225z"/>
	<path class="st25" d="M188,221h8c0.6,0,1,0.4,1,1v1c0,0.6-0.4,1-1,1h-8c-0.6,0-1-0.4-1-1v-1C187,221.4,187.4,221,188,221z"/>
	<path class="st23" d="M26,262h58c0.6,0,1,0.4,1,1v1c0,0.6-0.4,1-1,1H26c-0.6,0-1-0.4-1-1v-1C25,262.4,25.4,262,26,262z"/>
	<path class="st24" d="M26,270h48c0.6,0,1,0.4,1,1v1c0,0.6-0.4,1-1,1H26c-0.6,0-1-0.4-1-1v-1C25,270.4,25.4,270,26,270z"/>
	<path class="st23" d="M225,172h68c0.6,0,1,0.4,1,1v1c0,0.6-0.4,1-1,1h-68c-0.6,0-1-0.4-1-1v-1C224,172.4,224.4,172,225,172z"/>
	<path class="st22" d="M225,180h38c0.6,0,1,0.4,1,1v1c0,0.6-0.4,1-1,1h-38c-0.6,0-1-0.4-1-1v-1C224,180.4,224.4,180,225,180z"/>
	<path class="st22" d="M234,218h57c0.6,0,1,0.4,1,1v1c0,0.6-0.4,1-1,1h-57c-0.6,0-1-0.4-1-1v-1C233,218.4,233.4,218,234,218z"/>
	<path class="st25" d="M188,266h8c0.6,0,1,0.4,1,1v1c0,0.6-0.4,1-1,1h-8c-0.6,0-1-0.4-1-1v-1C187,266.4,187.4,266,188,266z"/>
	<circle class="st26" cx="225.5" cy="219.5" r="1.5"/>
	<path class="st22" d="M234,228h45c0.6,0,1,0.4,1,1v1c0,0.6-0.4,1-1,1h-45c-0.6,0-1-0.4-1-1v-1C233,228.4,233.4,228,234,228z"/>
	<circle class="st26" cx="225.5" cy="229.5" r="1.5"/>
	<path class="st22" d="M234,239h48c0.6,0,1,0.4,1,1v1c0,0.6-0.4,1-1,1h-48c-0.6,0-1-0.4-1-1v-1C233,239.4,233.4,239,234,239z"/>
	<circle class="st26" cx="225.5" cy="240.5" r="1.5"/>
	<path class="st22" d="M234,249h38c0.6,0,1,0.4,1,1v1c0,0.6-0.4,1-1,1h-38c-0.6,0-1-0.4-1-1v-1C233,249.4,233.4,249,234,249z"/>
	<circle class="st26" cx="225.5" cy="250.5" r="1.5"/>
	<path class="st22" d="M234,260h48c0.6,0,1,0.4,1,1v1c0,0.6-0.4,1-1,1h-48c-0.6,0-1-0.4-1-1v-1C233,260.4,233.4,260,234,260z"/>
	<circle class="st26" cx="225.5" cy="261.5" r="1.5"/>
	<path class="st2" d="M338,169h64c1.7,0,3,1.3,3,3v8c0,1.7-1.3,3-3,3h-64c-1.7,0-3-1.3-3-3v-8C335,170.3,336.3,169,338,169z"/>
	<path class="st20" d="M363.5,175h13c0.3,0,0.5,0.2,0.5,0.5v1c0,0.3-0.2,0.5-0.5,0.5h-13c-0.3,0-0.5-0.2-0.5-0.5v-1
		C363,175.2,363.2,175,363.5,175z"/>
	<path class="st9" d="M208,316h2l2,2v4c0,0.5-0.4,1-1,1h-3c-0.6,0-1-0.4-1-1v-5C207,316.5,207.4,316,208,316z"/>
	<path class="st23" d="M208.5,319h2v1h-2V319z M208.5,321h2v1h-2V321z"/>
	<path class="st9" d="M163.1,321.7c-1.3-0.5-2.2-1.5-2.2-2.8c0-1.7,1.6-3,3.6-3s3.6,1.3,3.6,3c0,1.5-1.4,2.8-3.2,3
		c-0.4,0.8-1.3,1.6-2.9,1.7C162.4,323,162.8,322.4,163.1,321.7L163.1,321.7z"/>
	<path class="st9" d="M117,317L117,317c0.6,0,1,0.4,1,1v4c0,0.6-0.4,1-1,1l0,0c-0.6,0-1-0.4-1-1v-4C116,317.4,116.4,317,117,317z"/>
	<path class="st9" d="M122,317L122,317c0.6,0,1,0.4,1,1v4c0,0.6-0.4,1-1,1l0,0c-0.6,0-1-0.4-1-1v-4C121,317.4,121.4,317,122,317z"/>
	<path class="st9" d="M116,316h7c0.6,0,1,0.4,1,1l0,0c0,0.6-0.4,1-1,1h-7c-0.6,0-1-0.4-1-1l0,0C115,316.4,115.4,316,116,316z"/>
	<path class="st9" d="M118.5,319h2v1h-2V319z"/>
	<g>
		<g>
			<g>
				<path class="st27" d="M160,40.5h-0.2c-0.2,0-0.3-0.2-0.3-0.4V25.8c0-0.2,0.1-0.4,0.3-0.4h0.2c0.2,0,0.3,0.2,0.3,0.4v14.3
					C160.4,40.4,160.3,40.5,160,40.5z M172.4,40.7L172.4,40.7c-0.3,0-0.5,0-0.7-0.1c-0.1-0.1-0.3-0.3-0.4-0.5l-6.8-13.7
					c0-0.1-0.1-0.1-0.2-0.1c0,0-0.1,0-0.1,0.1v13.8c0,0.2-0.1,0.4-0.3,0.4h-0.2c-0.2,0-0.3-0.2-0.3-0.4V26.3c0-0.6,0.4-1,1-1
					c0.6,0,0.8,0.2,1,0.6l6.8,13.7c0,0.1,0.1,0.1,0.2,0.1c0.1,0,0.1-0.1,0.1-0.2V25.8c0-0.2,0.1-0.4,0.3-0.4h0.2
					c0.2,0,0.3,0.2,0.3,0.4v13.8C173.3,40.3,172.9,40.7,172.4,40.7z M184.2,26.3h-4.3v13.9c0,0.2-0.1,0.4-0.3,0.4h-0.2
					c-0.2,0-0.3-0.2-0.3-0.4V26.3h-4.4c-0.2,0-0.4-0.1-0.4-0.3v-0.2c0-0.2,0.2-0.3,0.4-0.3h9.6c0.2,0,0.4,0.1,0.4,0.3V26
					C184.6,26.2,184.4,26.3,184.2,26.3z M193.4,40.5h-5.2c-1.5,0-2.5-0.6-2.5-2.3V27.7c0-1.7,0.9-2.3,2.5-2.3h5.2
					c0.2,0,0.4,0.1,0.4,0.3V26c0,0.2-0.2,0.3-0.4,0.3h-5.2c-1,0-1.6,0.2-1.6,1.4v4.5h6.8c0.2,0,0.4,0.1,0.4,0.3v0.2
					c0,0.2-0.2,0.3-0.4,0.3h-6.8v5.2c0,1.3,0.6,1.4,1.6,1.4h5.2c0.2,0,0.4,0.1,0.4,0.3v0.2C193.8,40.4,193.6,40.5,193.4,40.5z
					 M203.1,40.5h-4.6c-1.5,0-2.5-0.6-2.5-2.3V25.8c0-0.2,0.1-0.4,0.3-0.4h0.2c0.2,0,0.3,0.2,0.3,0.4v12.4c0,1.3,0.6,1.4,1.6,1.4
					h4.6c0.2,0,0.4,0.1,0.4,0.3v0.2C203.5,40.4,203.3,40.5,203.1,40.5z M212.4,40.5h-4.6c-1.5,0-2.5-0.6-2.5-2.3V25.8
					c0-0.2,0.1-0.4,0.3-0.4h0.2c0.2,0,0.3,0.2,0.3,0.4v12.4c0,1.3,0.6,1.4,1.6,1.4h4.6c0.2,0,0.4,0.1,0.4,0.3v0.2
					C212.8,40.4,212.7,40.5,212.4,40.5z M215.4,40.5h-0.2c-0.2,0-0.3-0.2-0.3-0.4V25.8c0-0.2,0.1-0.4,0.3-0.4h0.2
					c0.2,0,0.3,0.2,0.3,0.4v14.3C215.7,40.4,215.6,40.5,215.4,40.5z"/>
			</g>
			<g>
				<path class="st28" d="M226.7,33.5h-6.2v6.6c0,0.2-0.2,0.4-0.4,0.4h-1c-0.2,0-0.4-0.2-0.4-0.4V29.1c0-2.7,1.5-3.8,4.3-3.8
					c1.2,0,3.1,0,4,0.1c0.1,0,0.2,0.2,0.2,0.3v1c0,0.1-0.1,0.2-0.2,0.2H223c-2.2,0-2.5,0.6-2.5,2.1v2.8h6.2c0.2,0,0.4,0.2,0.4,0.4
					v0.8C227.1,33.3,226.9,33.5,226.7,33.5z M231,40.5h-1.1c-0.2,0-0.4-0.2-0.4-0.4V25.8c0-0.2,0.1-0.4,0.4-0.4h1.1
					c0.2,0,0.4,0.2,0.4,0.4v14.3C231.4,40.3,231.2,40.5,231,40.5z M244.3,40.5H243c-0.3,0-0.5-0.1-0.7-0.3l-6.3-11.9
					c0,0,0-0.1-0.1-0.1c0,0,0,0,0,0.1v11.9c0,0.2-0.2,0.4-0.4,0.4h-1.1c-0.2,0-0.4,0-0.4-0.2V26c0-0.3,0.3-0.6,0.6-0.6h1.1
					c0.6,0,0.7,0.1,0.8,0.4l6.2,11.9l0,0.1c0,0,0,0,0-0.1V25.8c0-0.2,0.2-0.4,0.4-0.4h1.1c0.2,0,0.4,0.2,0.4,0.4v14.1
					C244.9,40.3,244.6,40.5,244.3,40.5z M251.7,40.7c-1.5,0-3.1-0.1-3.7-0.2c-0.3,0-0.4-0.2-0.4-0.5V26c0-0.3,0.2-0.5,0.4-0.5
					c0.6-0.1,2.2-0.2,3.7-0.2c3.8,0,6.2,1.9,6.2,6.3v2.7C257.8,38.7,255.4,40.7,251.7,40.7z M256,31.6c0-3.7-1.9-4.7-4.3-4.7
					c-1,0-1.6,0-2.3,0.1v12.1c0.6,0,1.3,0,2.3,0c2.4,0,4.3-1.1,4.3-4.7V31.6z M268.3,40.6c-0.8,0.1-2.8,0.1-4,0.1
					c-2.8,0-4.3-1.1-4.3-3.8v-7.8c0-2.7,1.5-3.8,4.3-3.8c1.2,0,3.1,0,4,0.1c0.1,0,0.2,0.2,0.2,0.3v1c0,0.1-0.1,0.2-0.2,0.2h-3.9
					c-2.2,0-2.5,0.6-2.5,2.1v2.8h6.2c0.2,0,0.4,0.2,0.4,0.4v0.8c0,0.2-0.2,0.4-0.4,0.4h-6.2v3.4c0,1.5,0.3,2.1,2.5,2.1h3.9
					c0.1,0,0.2,0.1,0.2,0.2v1C268.5,40.4,268.5,40.6,268.3,40.6z M280.8,40.5h-1.3c-0.2,0-0.4,0-0.5-0.3l-3.6-6.1
					c-0.1,0-0.1,0-0.2,0c-0.1,0-0.2,0-0.3,0c-0.7,0-1.2,0-2.2-0.1v6c0,0.2-0.1,0.4-0.4,0.4h-1.1c-0.2,0-0.4-0.2-0.4-0.4V25.9
					c0-0.3,0.1-0.4,0.5-0.4c0.9-0.1,2.4-0.2,3.6-0.2c3.2,0,5.7,1.1,5.7,4.4v0.1c0,2.3-1.3,3.6-3.2,4.1l3.7,6.2
					c0,0.1,0.1,0.1,0.1,0.2C281.1,40.4,281,40.5,280.8,40.5z M278.7,29.7c0-2-1.3-2.7-3.9-2.7c-0.6,0-1.7,0-2.2,0.1v5.6
					c0.9,0,1.8,0,2.2,0c2.5,0,3.9-0.6,3.9-2.8V29.7z"/>
			</g>
		</g>
		<g>
			<path class="st28" d="M280.4,44.3H160.1c-2.4,0-4.4-2-4.4-4.4V26.1c0-2.4,2-4.4,4.4-4.4h120.3c2.4,0,4.4,2,4.4,4.4v13.8
				C284.9,42.4,282.9,44.3,280.4,44.3z M160.1,22.9c-1.7,0-3.2,1.4-3.2,3.2v13.8c0,1.7,1.4,3.2,3.2,3.2h120.3c1.7,0,3.2-1.4,3.2-3.2
				V26.1c0-1.7-1.4-3.2-3.2-3.2H160.1z"/>
		</g>
	</g>
</g>
</svg>
