<?xml version="1.0" encoding="utf-8"?>
<!-- Generator: Adobe Illustrator 19.0.0, SVG Export Plug-In . SVG Version: 6.00 Build 0)  -->
<svg version="1.1" id="Layer_1" xmlns="http://www.w3.org/2000/svg" xmlns:xlink="http://www.w3.org/1999/xlink" x="0px" y="0px"
	 viewBox="-161.6 194.2 253 461" style="enable-background:new -161.6 194.2 253 461;" xml:space="preserve">
<style type="text/css">
	.st0{fill:#FFFFFF;}
	.st1{fill:#4C2600;fill-opacity:8.000000e-002;}
	.st2{fill:#F5F6F8;}
	.st3{fill:none;stroke:#ADBACC;stroke-width:2;stroke-opacity:0.15;}
	.st4{fill:#E3E7ED;}
	.st5{fill:#42B129;}
	.st6{fill:#07B0B7;}
	.st7{fill:#08B0B6;}
	.st8{fill:#085900;fill-opacity:8.000000e-002;}
	.st9{fill:#C6F5B6;fill-opacity:0.75;}
	.st10{fill:#231F20;}
	.st11{fill:#F9A51A;}
	.st12{opacity:7.000000e-002;}
	.st13{clip-path:url(#SVGID_2_);fill:#231F20;}
	.st14{fill:#93E0E5;}
	.st15{font-family:'Montserrat-Bold';}
	.st16{font-size:8px;}
	.st17{font-family:'FontAwesome';}
	.st18{font-size:24.5628px;}
	.st19{fill:#F59D32;}
</style>
<path class="st0" d="M-156.6,194.2h243c2.8,0,5,2.2,5,5v451c0,2.8-2.2,5-5,5h-243c-2.8,0-5-2.2-5-5v-451
	C-161.6,196.5-159.4,194.2-156.6,194.2z"/>
<ellipse class="st1" cx="-38.4" cy="361.4" rx="31.5" ry="3"/>
<path class="st2" d="M-159.6,449.2h249v40h-249V449.2z M-159.6,613.2h249v40h-249V613.2z"/>
<path class="st3" d="M-156.6,195.2h243c2.2,0,4,1.8,4,4v451c0,2.2-1.8,4-4,4h-243c-2.2,0-4-1.8-4-4v-451
	C-160.6,197-158.8,195.2-156.6,195.2z"/>
<path class="st4" d="M-91.6,384.2h113c0.6,0,1,0.4,1,1v3c0,0.6-0.4,1-1,1h-113c-0.6,0-1-0.4-1-1v-3
	C-92.6,384.7-92.2,384.2-91.6,384.2z"/>
<path class="st2" d="M-71.6,396.2h73c0.6,0,1,0.4,1,1v3c0,0.6-0.4,1-1,1h-73c-0.6,0-1-0.4-1-1v-3C-72.6,396.7-72.2,396.2-71.6,396.2
	z"/>
<path class="st4" d="M-118.6,574.2h41c0.6,0,1,0.4,1,1v1c0,0.6-0.4,1-1,1h-41c-0.6,0-1-0.4-1-1v-1
	C-119.6,574.7-119.2,574.2-118.6,574.2z"/>
<path class="st2" d="M-107.6,580.2h19c0.6,0,1,0.4,1,1v1c0,0.6-0.4,1-1,1h-19c-0.6,0-1-0.4-1-1v-1
	C-108.6,580.7-108.2,580.2-107.6,580.2z"/>
<path class="st4" d="M7.4,574.2h40c0.6,0,1,0.4,1,1v1c0,0.6-0.4,1-1,1h-40c-0.6,0-1-0.4-1-1v-1C6.4,574.7,6.8,574.2,7.4,574.2z"/>
<path class="st2" d="M18.4,580.2h18c0.6,0,1,0.4,1,1v1c0,0.6-0.4,1-1,1h-18c-0.6,0-1-0.4-1-1v-1C17.4,580.7,17.8,580.2,18.4,580.2z"
	/>
<path class="st2" d="M-36.6,489.2h2v124h-2V489.2z"/>
<path class="st5" d="M-28.6,620.2h110c1.7,0,3,1.3,3,3v22c0,1.7-1.3,3-3,3h-110c-1.7,0-3-1.3-3-3v-22
	C-31.6,621.6-30.3,620.2-28.6,620.2z"/>
<path class="st0" d="M-151.6,620.2h109c1.7,0,3,1.3,3,3v22c0,1.7-1.3,3-3,3h-109c-1.7,0-3-1.3-3-3v-22
	C-154.6,621.6-153.3,620.2-151.6,620.2z"/>
<path class="st6" d="M-52.6,633.2v-4h-2v4h-4v2h4v4h2v-4h4v-2H-52.6z"/>
<path class="st7" d="M-145.6,633.2h10v2h-10V633.2z"/>
<path class="st2" d="M-126.6,625.2h2v18h-2V625.2z M-69.6,625.2h2v18h-2V625.2z"/>
<path class="st8" d="M8.4,631.2h36c1.1,0,2,0.9,2,2v2c0,1.1-0.9,2-2,2h-36c-1.1,0-2-0.9-2-2v-2C6.4,632.1,7.3,631.2,8.4,631.2z"/>
<path class="st9" d="M8.4,632.2h36c0.6,0,1,0.4,1,1v1c0,0.6-0.4,1-1,1h-36c-0.6,0-1-0.4-1-1v-1C7.4,632.7,7.8,632.2,8.4,632.2z"/>
<g>
	<g>
		<g>
			<path class="st10" d="M-94.9,236.8h-0.2c-0.2,0-0.3-0.2-0.3-0.4v-14.3c0-0.2,0.1-0.4,0.3-0.4h0.2c0.2,0,0.3,0.2,0.3,0.4v14.3
				C-94.6,236.6-94.7,236.8-94.9,236.8z M-82.6,236.9L-82.6,236.9c-0.3,0-0.5,0-0.7-0.1c-0.1-0.1-0.3-0.3-0.4-0.5l-6.8-13.7
				c0-0.1-0.1-0.1-0.2-0.1c0,0-0.1,0-0.1,0.1v13.8c0,0.2-0.1,0.4-0.3,0.4h-0.2c-0.2,0-0.3-0.2-0.3-0.4v-13.8c0-0.6,0.4-1,1-1
				c0.6,0,0.8,0.2,1,0.6l6.8,13.7c0,0.1,0.1,0.1,0.2,0.1c0.1,0,0.1-0.1,0.1-0.2v-13.8c0-0.2,0.1-0.4,0.3-0.4h0.2
				c0.2,0,0.3,0.2,0.3,0.4v13.8C-81.7,236.5-82.1,236.9-82.6,236.9z M-70.8,222.5h-4.3v13.9c0,0.2-0.1,0.4-0.3,0.4h-0.2
				c-0.2,0-0.3-0.2-0.3-0.4v-13.9h-4.4c-0.2,0-0.4-0.1-0.4-0.3V222c0-0.2,0.2-0.3,0.4-0.3h9.6c0.2,0,0.4,0.1,0.4,0.3v0.2
				C-70.4,222.4-70.6,222.5-70.8,222.5z M-61.6,236.8h-5.2c-1.5,0-2.5-0.6-2.5-2.3v-10.5c0-1.7,0.9-2.3,2.5-2.3h5.2
				c0.2,0,0.4,0.1,0.4,0.3v0.2c0,0.2-0.2,0.3-0.4,0.3h-5.2c-1,0-1.6,0.2-1.6,1.4v4.5h6.8c0.2,0,0.4,0.1,0.4,0.3v0.2
				c0,0.2-0.2,0.3-0.4,0.3h-6.8v5.2c0,1.3,0.6,1.4,1.6,1.4h5.2c0.2,0,0.4,0.1,0.4,0.3v0.2C-61.2,236.6-61.4,236.8-61.6,236.8z
				 M-51.9,236.8h-4.6c-1.5,0-2.5-0.6-2.5-2.3v-12.4c0-0.2,0.1-0.4,0.3-0.4h0.2c0.2,0,0.3,0.2,0.3,0.4v12.4c0,1.3,0.6,1.4,1.6,1.4
				h4.6c0.2,0,0.4,0.1,0.4,0.3v0.2C-51.5,236.6-51.6,236.8-51.9,236.8z M-42.6,236.8h-4.6c-1.5,0-2.5-0.6-2.5-2.3v-12.4
				c0-0.2,0.1-0.4,0.3-0.4h0.2c0.2,0,0.3,0.2,0.3,0.4v12.4c0,1.3,0.6,1.4,1.6,1.4h4.6c0.2,0,0.4,0.1,0.4,0.3v0.2
				C-42.2,236.6-42.3,236.8-42.6,236.8z M-39.6,236.8h-0.2c-0.2,0-0.3-0.2-0.3-0.4v-14.3c0-0.2,0.1-0.4,0.3-0.4h0.2
				c0.2,0,0.3,0.2,0.3,0.4v14.3C-39.3,236.6-39.4,236.8-39.6,236.8z"/>
		</g>
		<g>
			<path class="st11" d="M-28.3,229.7h-6.2v6.6c0,0.2-0.2,0.4-0.4,0.4h-1c-0.2,0-0.4-0.2-0.4-0.4v-11.1c0-2.7,1.5-3.8,4.3-3.8
				c1.2,0,3.1,0,4,0.1c0.1,0,0.2,0.2,0.2,0.3v1c0,0.1-0.1,0.2-0.2,0.2H-32c-2.2,0-2.5,0.6-2.5,2.1v2.8h6.2c0.2,0,0.4,0.2,0.4,0.4
				v0.8C-27.9,229.5-28,229.7-28.3,229.7z M-24,236.8h-1.1c-0.2,0-0.4-0.2-0.4-0.4v-14.3c0-0.2,0.1-0.4,0.4-0.4h1.1
				c0.2,0,0.4,0.2,0.4,0.4v14.3C-23.6,236.6-23.8,236.8-24,236.8z M-10.7,236.8H-12c-0.3,0-0.5-0.1-0.7-0.3l-6.3-11.9
				c0,0,0-0.1-0.1-0.1c0,0,0,0,0,0.1v11.9c0,0.2-0.2,0.4-0.4,0.4h-1.1c-0.2,0-0.4,0-0.4-0.2v-14.3c0-0.3,0.3-0.6,0.6-0.6h1.1
				c0.6,0,0.7,0.1,0.8,0.4l6.2,11.9l0,0.1c0,0,0,0,0-0.1v-11.9c0-0.2,0.2-0.4,0.4-0.4h1.1c0.2,0,0.4,0.2,0.4,0.4v14.1
				C-10.1,236.5-10.4,236.8-10.7,236.8z M-3.3,236.9c-1.5,0-3.1-0.1-3.7-0.2c-0.3,0-0.4-0.2-0.4-0.5v-14c0-0.3,0.2-0.5,0.4-0.5
				c0.6-0.1,2.2-0.2,3.7-0.2c3.8,0,6.2,1.9,6.2,6.3v2.7C2.8,234.9,0.4,236.9-3.3,236.9z M1,227.8c0-3.7-1.9-4.7-4.3-4.7
				c-1,0-1.6,0-2.3,0.1v12.1c0.6,0,1.3,0,2.3,0c2.4,0,4.3-1.1,4.3-4.7V227.8z M13.3,236.8c-0.8,0.1-2.8,0.1-4,0.1
				c-2.8,0-4.3-1.1-4.3-3.8v-7.8c0-2.7,1.5-3.8,4.3-3.8c1.2,0,3.1,0,4,0.1c0.1,0,0.2,0.2,0.2,0.3v1c0,0.1-0.1,0.2-0.2,0.2H9.4
				c-2.2,0-2.5,0.6-2.5,2.1v2.8h6.2c0.2,0,0.4,0.2,0.4,0.4v0.8c0,0.2-0.2,0.4-0.4,0.4H6.9v3.4c0,1.5,0.3,2.1,2.5,2.1h3.9
				c0.1,0,0.2,0.1,0.2,0.2v1C13.5,236.6,13.5,236.8,13.3,236.8z M25.8,236.8h-1.3c-0.2,0-0.4,0-0.5-0.3l-3.6-6.1c-0.1,0-0.1,0-0.2,0
				c-0.1,0-0.2,0-0.3,0c-0.7,0-1.2,0-2.2-0.1v6c0,0.2-0.1,0.4-0.4,0.4h-1.1c-0.2,0-0.4-0.2-0.4-0.4v-14.2c0-0.3,0.1-0.4,0.5-0.4
				c0.9-0.1,2.4-0.2,3.6-0.2c3.2,0,5.7,1.1,5.7,4.4v0.1c0,2.3-1.3,3.6-3.2,4.1l3.7,6.2c0,0.1,0.1,0.1,0.1,0.2
				C26.1,236.6,26,236.8,25.8,236.8z M23.7,225.9c0-2-1.3-2.7-3.9-2.7c-0.6,0-1.7,0-2.2,0.1v5.6c0.9,0,1.8,0,2.2,0
				c2.5,0,3.9-0.6,3.9-2.8V225.9z"/>
		</g>
	</g>
	<g>
		<path class="st11" d="M25.4,240.6H-94.9c-2.4,0-4.4-2-4.4-4.4v-13.8c0-2.4,2-4.4,4.4-4.4H25.4c2.4,0,4.4,2,4.4,4.4v13.8
			C29.9,238.6,27.9,240.6,25.4,240.6z M-94.9,219.2c-1.7,0-3.2,1.4-3.2,3.2v13.8c0,1.7,1.4,3.2,3.2,3.2H25.4c1.7,0,3.2-1.4,3.2-3.2
			v-13.8c0-1.7-1.4-3.2-3.2-3.2H-94.9z"/>
	</g>
</g>
<circle class="st0" cx="-36.4" cy="305.8" r="14.6"/>
<path class="st0" d="M-14.8,302.5c0,13.7-24.9,50.4-24.9,50.4s-24.9-36.6-24.9-50.4c0-13.7,11.1-24.9,24.9-24.9
	S-14.8,288.8-14.8,302.5z"/>
<g class="st12">
	<defs>
		<rect id="SVGID_1_" x="-39.8" y="275.8" class="st12" width="25" height="77.1"/>
	</defs>
	<clipPath id="SVGID_2_">
		<use xlink:href="#SVGID_1_"  style="overflow:visible;"/>
	</clipPath>
	<path class="st13" d="M-14.9,301.2c0-13.7-11.1-24.9-24.9-24.9s-24.9,11.1-24.9,24.9c0,0.2,0,0.4,0,0.7c0,0.2,0,0.4,0,0.7
		c0,13.7,24.9,50.4,24.9,50.4s24.9-36.6,24.9-50.4c0-0.2,0-0.4,0-0.7C-14.9,301.7-14.9,301.5-14.9,301.2z"/>
</g>
<path class="st14" d="M-74.4,565.6h-47c-1.9,0-3.5-1.6-3.5-3.5v-9.5c0-1.9,1.6-3.5,3.5-3.5h47c1.9,0,3.5,1.6,3.5,3.5v9.5
	C-70.9,564-72.4,565.6-74.4,565.6z"/>
<path class="st14" d="M50,565.6H3c-1.9,0-3.5-1.6-3.5-3.5v-9.5c0-1.9,1.6-3.5,3.5-3.5h47c1.9,0,3.5,1.6,3.5,3.5v9.5
	C53.5,564,51.9,565.6,50,565.6z"/>
<text transform="matrix(1 0 0 1 -106.8452 560.0422)" class="st0 st15 st16">map</text>
<text transform="matrix(1 0 0 1 10.9819 560.0422)" class="st0 st15 st16">c-panel</text>
<text transform="matrix(1 0 0 1 -112.1111 533.8682)" class="st4 st17 st18"></text>
<text transform="matrix(1 0 0 1 12.8889 533.8682)" class="st4 st17 st18"></text>
<g id="XMLID_236_">
	<circle id="XMLID_250_" class="st19" cx="-40.2" cy="302.6" r="21.1"/>
	<g id="XMLID_246_">
		<path id="XMLID_249_" class="st0" d="M-57.1,303.2c0.1-1.7,0.3-3.4,0.8-5c0.6-2,1.5-3.8,2.8-5.5c1.2-1.6,2.6-2.9,4.1-4.1
			c1.6-1.2,3.4-2.1,5.4-2.6c1-0.3,2.1-0.5,3.1-0.6c0.7-0.1,1.4-0.1,2-0.1c1,0,1.8,0.5,2.1,1.4c0.5,1.2-0.3,2.7-1.6,2.9
			c-0.4,0.1-0.8,0.1-1.3,0.1c-1.6,0.1-3.1,0.4-4.5,1c-1.9,0.8-3.6,1.9-5,3.4c-1.6,1.7-2.7,3.7-3.3,5.9c-0.3,1.2-0.5,2.4-0.5,3.7
			c0,1.1-0.8,2-1.9,2.2c-1.2,0.2-2.2-0.7-2.4-1.7C-57.1,303.7-57.1,303.5-57.1,303.2z"/>
		<path id="XMLID_247_" class="st0" d="M-48.6,303.6c0.1-2.7,1-4.9,2.9-6.8c1.5-1.5,3.3-2.5,5.4-2.9c0.7-0.1,1.4-0.2,2.1-0.1
			c0.9,0.1,1.7,1,1.8,1.9c0.1,1.1-0.7,2-1.6,2.2c-0.3,0.1-0.7,0.1-1,0.1c-1.8,0.2-3.2,1-4.3,2.5c-0.7,1-1.1,2.1-1.1,3.4
			c0,1.1-0.9,2-2,2.1c-1,0.1-2-0.7-2.2-1.7C-48.6,303.9-48.6,303.7-48.6,303.6z"/>
	</g>
	<path id="XMLID_245_" class="st0" d="M-40.4,319.5h2.5c0.3,0,0.5-0.2,0.5-0.5v-16.8c0-0.3-0.2-0.5-0.5-0.5c-0.9,0-2.5,0.4-3,2.7
		c0,0,0,0.1,0,0.1V319C-40.9,319.3-40.7,319.5-40.4,319.5z"/>
	<path id="XMLID_244_" class="st0" d="M-35.4,319.5h2.1c0.2,0,0.4-0.2,0.4-0.5v-16.8c0-0.3-0.2-0.5-0.4-0.5c-0.7,0-2.1,0.4-2.5,2.7
		c0,0,0,0.1,0,0.1V319C-35.8,319.3-35.6,319.5-35.4,319.5z"/>
	<path id="XMLID_243_" class="st0" d="M-27.3,309.5h-5.1c-0.2,0-0.4-0.2-0.4-0.4v-4c0-0.2,0.2-0.4,0.4-0.4h5.6c0.1,0,0.1,0,0.2,0
		c1.2-0.4,1.4-1.9,1.4-2.5c0-0.2-0.1-0.4-0.3-0.4h-7.3h-1.8h-0.7c-0.3,0-0.5,0.2-0.5,0.5l0,16.8c0,0.3,0.2,0.5,0.5,0.5
		c0.9,0,2-0.4,2.4-2.7c0,0,0-0.1,0-0.1v-4.2c0-0.2,0.2-0.4,0.4-0.4h3.9c0,0,0,0,0.1,0c1.2-0.3,1.4-1.6,1.5-2.2
		C-27,309.7-27.1,309.5-27.3,309.5z"/>
</g>
</svg>
