<?xml version="1.0" encoding="utf-8"?>
<!-- Generator: Adobe Illustrator 19.0.0, SVG Export Plug-In . SVG Version: 6.00 Build 0)  -->
<svg version="1.1" id="Layer_1" xmlns="http://www.w3.org/2000/svg" xmlns:xlink="http://www.w3.org/1999/xlink" x="0px" y="0px"
	 viewBox="0 0 663.6 553.8" style="enable-background:new 0 0 663.6 553.8;" xml:space="preserve">
<style type="text/css">
	.st0{fill:#FFFFFF;}
	.st1{fill:none;stroke:#FFFFFF;stroke-miterlimit:10;}
</style>
<g id="XMLID_1_">
	<circle id="XMLID_72_" class="st0" cx="286.4" cy="370.6" r="23.2"/>
	<circle id="XMLID_71_" class="st0" cx="198.9" cy="245.7" r="52.2"/>
	<circle id="XMLID_70_" class="st0" cx="460.3" cy="224" r="11.6"/>
	<circle id="XMLID_69_" class="st0" cx="519.5" cy="95.6" r="11.6"/>
	<circle id="XMLID_68_" class="st0" cx="140.9" cy="66.3" r="11.6"/>
	<circle id="XMLID_67_" class="st0" cx="460.3" cy="335.8" r="11.6"/>
	<circle id="XMLID_66_" class="st0" cx="626.6" cy="113" r="11.6"/>
	<circle id="XMLID_65_" class="st0" cx="652" cy="377.8" r="11.6"/>
	<circle id="XMLID_64_" class="st0" cx="11.6" cy="224" r="11.6"/>
	<circle id="XMLID_63_" class="st0" cx="286.4" cy="142" r="5.8"/>
	<circle id="XMLID_62_" class="st0" cx="557.8" cy="124.1" r="5.8"/>
	<circle id="XMLID_61_" class="st0" cx="557.8" cy="5.8" r="5.8"/>
	<circle id="XMLID_60_" class="st0" cx="379.2" cy="19.1" r="5.8"/>
	<circle id="XMLID_59_" class="st0" cx="652" cy="188.8" r="5.8"/>
	<circle id="XMLID_58_" class="st0" cx="349.8" cy="263.8" r="5.8"/>
	<circle id="XMLID_57_" class="st0" cx="563.6" cy="297.9" r="5.8"/>
	<circle id="XMLID_56_" class="st0" cx="448.7" cy="548" r="5.8"/>
	<line id="XMLID_55_" class="st1" x1="448.7" y1="548" x2="460.3" y2="339.1"/>
	<line id="XMLID_54_" class="st1" x1="460.3" y1="335.8" x2="286.4" y2="370.6"/>
	<line id="XMLID_53_" class="st1" x1="460.3" y1="335.8" x2="563.6" y2="297.9"/>
	<line id="XMLID_52_" class="st1" x1="460.3" y1="335.8" x2="460.3" y2="224"/>
	<line id="XMLID_51_" class="st1" x1="460.3" y1="335.8" x2="349.8" y2="263.8"/>
	<line id="XMLID_50_" class="st1" x1="349.8" y1="263.8" x2="198.9" y2="245.7"/>
	<line id="XMLID_49_" class="st1" x1="198.9" y1="245.7" x2="286.4" y2="142"/>
	<line id="XMLID_48_" class="st1" x1="286.4" y1="142" x2="519.5" y2="95.6"/>
	<line id="XMLID_47_" class="st1" x1="519.5" y1="95.6" x2="557.8" y2="124.1"/>
	<line id="XMLID_46_" class="st1" x1="557.8" y1="124.1" x2="460.3" y2="224"/>
	<line id="XMLID_45_" class="st1" x1="460.3" y1="224" x2="563.6" y2="297.9"/>
	<line id="XMLID_44_" class="st1" x1="460.3" y1="224" x2="349.8" y2="263.8"/>
	<line id="XMLID_43_" class="st1" x1="349.8" y1="263.8" x2="286.4" y2="372.8"/>
	<line id="XMLID_42_" class="st1" x1="198.9" y1="245.7" x2="286.4" y2="372.8"/>
	<line id="XMLID_41_" class="st1" x1="286.4" y1="142" x2="349.8" y2="263.8"/>
	<line id="XMLID_40_" class="st1" x1="460.3" y1="224" x2="286.4" y2="142"/>
	<line id="XMLID_39_" class="st1" x1="460.3" y1="224" x2="519.5" y2="95.6"/>
	<line id="XMLID_38_" class="st1" x1="557.8" y1="124.1" x2="563.6" y2="297.9"/>
	<line id="XMLID_37_" class="st1" x1="198.9" y1="245.7" x2="11.6" y2="224"/>
	<line id="XMLID_36_" class="st1" x1="286.4" y1="142" x2="11.6" y2="224"/>
	<line id="XMLID_35_" class="st1" x1="286.4" y1="372.8" x2="448.7" y2="548"/>
	<line id="XMLID_34_" class="st1" x1="563.6" y1="297.9" x2="448.7" y2="548"/>
	<line id="XMLID_33_" class="st1" x1="11.6" y1="224" x2="140.9" y2="66.3"/>
	<line id="XMLID_32_" class="st1" x1="286.4" y1="142" x2="140.9" y2="66.3"/>
	<line id="XMLID_31_" class="st1" x1="519.5" y1="95.6" x2="557.8" y2="5.8"/>
	<line id="XMLID_30_" class="st1" x1="519.5" y1="95.6" x2="379.2" y2="19.1"/>
	<line id="XMLID_29_" class="st1" x1="557.8" y1="124.1" x2="626.6" y2="113"/>
	<line id="XMLID_28_" class="st1" x1="563.6" y1="297.9" x2="652" y2="188.8"/>
	<line id="XMLID_27_" class="st1" x1="563.6" y1="297.9" x2="652" y2="377.8"/>
	<line id="XMLID_26_" class="st1" x1="557.8" y1="124.1" x2="652" y2="188.8"/>
	<line id="XMLID_25_" class="st1" x1="454.5" y1="548" x2="652" y2="377.8"/>
	<line id="XMLID_24_" class="st1" x1="11.6" y1="224" x2="286.4" y2="372.8"/>
	<line id="XMLID_23_" class="st1" x1="286.4" y1="142" x2="379.2" y2="19.1"/>
	<line id="XMLID_22_" class="st1" x1="140.9" y1="66.3" x2="379.2" y2="19.1"/>
	<line id="XMLID_21_" class="st1" x1="379.2" y1="19.1" x2="557.8" y2="5.8"/>
	<line id="XMLID_20_" class="st1" x1="557.8" y1="5.8" x2="557.8" y2="124.1"/>
	<line id="XMLID_19_" class="st1" x1="557.8" y1="5.8" x2="626.6" y2="113"/>
	<line id="XMLID_18_" class="st1" x1="626.6" y1="113" x2="652" y2="188.8"/>
	<line id="XMLID_17_" class="st1" x1="652" y1="188.8" x2="652" y2="377.8"/>
</g>
</svg>
