<?xml version="1.0" encoding="utf-8"?>
<!-- Generator: Adobe Illustrator 19.2.0, SVG Export Plug-In . SVG Version: 6.00 Build 0)  -->
<svg version="1.1" id="Layer_1" xmlns="http://www.w3.org/2000/svg" xmlns:xlink="http://www.w3.org/1999/xlink" x="0px" y="0px"
	 viewBox="0 0 554.1 68.8" style="enable-background:new 0 0 554.1 68.8;" xml:space="preserve">
<style type="text/css">
	.Arched_x0020_Green{fill:url(#SVGID_1_);stroke:#FFFFFF;stroke-width:0.25;stroke-miterlimit:1;}
	.st0{fill:#F7A600;}
</style>
<linearGradient id="SVGID_1_" gradientUnits="userSpaceOnUse" x1="-165.9856" y1="359.5464" x2="-165.2785" y2="358.8393">
	<stop  offset="0" style="stop-color:#1DA238"/>
	<stop  offset="0.9831" style="stop-color:#24391D"/>
</linearGradient>
<g>
	<path d="M2.5,68.8H1.6C0.6,68.8,0,68,0,67V1.8C0,0.8,0.6,0,1.6,0h0.9c0.9,0,1.6,0.8,1.6,1.8V67C4.1,68,3.4,68.8,2.5,68.8z
		 M58.8,69.4L58.8,69.4c-1.5,0-2.3,0-3.1-0.6c-0.6-0.5-1.2-1.2-1.7-2.1L22.8,4.1c-0.2-0.4-0.4-0.6-0.7-0.6c-0.2,0-0.5,0.2-0.5,0.6
		v63c0,0.9-0.6,1.8-1.6,1.8h-0.9c-0.9,0-1.6-0.8-1.6-1.8v-63c0-2.8,1.9-4.5,4.5-4.5c2.6,0,3.6,1.1,4.4,2.9l31.1,62.4
		c0.2,0.4,0.4,0.6,0.7,0.6c0.4,0,0.5-0.5,0.5-0.8V1.8c0-0.9,0.6-1.8,1.5-1.8h1.1c1,0,1.6,0.8,1.6,1.8v62.9
		C63,67.6,61.1,69.4,58.8,69.4z M112.7,3.8H92.9V67c0,0.9-0.6,1.8-1.6,1.8h-0.9c-0.9,0-1.6-0.8-1.6-1.8V3.8H68.9
		c-1,0-1.8-0.5-1.8-1.4V1.6c0-0.9,0.7-1.6,1.8-1.6h43.8c1,0,1.8,0.6,1.8,1.6v0.8C114.4,3.3,113.7,3.8,112.7,3.8z M154.6,68.8h-23.9
		c-7,0-11.2-2.6-11.2-10.4V10.4c0-7.8,4.2-10.4,11.2-10.4h23.9c1,0,1.8,0.6,1.8,1.6v0.7c0,0.9-0.7,1.5-1.8,1.5h-23.9
		c-4.4,0-7.1,0.8-7.1,6.6v20.4h31c1,0,1.8,0.6,1.8,1.5v0.9c0,0.9-0.7,1.6-1.8,1.6h-31v23.7c0,5.7,2.7,6.6,7.1,6.6h23.9
		c1,0,1.8,0.6,1.8,1.5v0.7C156.4,68.2,155.6,68.8,154.6,68.8z M198.9,68.8h-21.1c-7,0-11.2-2.6-11.2-10.4V1.8c0-0.9,0.6-1.8,1.6-1.8
		h0.9c0.9,0,1.6,0.8,1.6,1.8v56.7c0,5.7,2.7,6.6,7.1,6.6h21.1c1,0,1.8,0.6,1.8,1.5v0.7C200.6,68.2,199.9,68.8,198.9,68.8z
		 M241.3,68.8h-21.1c-7,0-11.2-2.6-11.2-10.4V1.8c0-0.9,0.7-1.8,1.6-1.8h0.9c0.9,0,1.6,0.8,1.6,1.8v56.7c0,5.7,2.7,6.6,7.1,6.6h21.1
		c1,0,1.8,0.6,1.8,1.5v0.7C243,68.2,242.3,68.8,241.3,68.8z M254.8,68.8h-0.9c-0.9,0-1.6-0.8-1.6-1.8V1.8c0-0.9,0.6-1.8,1.6-1.8h0.9
		c0.9,0,1.6,0.8,1.6,1.8V67C256.4,68,255.7,68.8,254.8,68.8z"/>
	<path class="st0" d="M306.5,36.7H278V67c0,1-0.8,1.9-1.9,1.9h-4.7c-1,0-1.8-0.8-1.8-1.9V16.6c0-12.3,6.8-17.2,19.7-17.2
		c5.5,0,14.2,0.2,18.1,0.5c0.6,0.1,0.9,0.7,0.9,1.3v4.6c0,0.7-0.4,1.1-1,1.1h-17.9c-9.8,0-11.4,2.6-11.4,9.6v12.9h28.4
		c1,0,1.9,0.8,1.9,1.9v3.5C308.3,35.8,307.5,36.7,306.5,36.7z M326,68.8h-5.1c-0.9,0-1.7-0.8-1.7-1.9V1.8c0-0.9,0.6-1.8,1.7-1.8h5.1
		c0.9,0,1.7,0.7,1.7,1.8V67C327.7,67.9,327,68.8,326,68.8z M386.5,68.8h-5.7c-1.5,0-2.5-0.6-3-1.5L349.2,13
		c-0.1-0.2-0.2-0.3-0.3-0.3c-0.1,0-0.1,0.1-0.1,0.3V67c0,0.9-0.7,1.8-1.7,1.8h-4.8c-0.9,0-1.7-0.2-1.7-1.1V2.6
		c0-1.5,1.2-2.6,2.7-2.6h5.1c2.6,0,3,0.5,3.8,1.9l28.4,54.1l0.2,0.3c0.1,0,0.1-0.2,0.1-0.3V1.8c0-0.9,0.7-1.8,1.7-1.8h4.9
		c1,0,1.7,0.8,1.7,1.8v64.4C389.2,67.6,388,68.8,386.5,68.8z M420.1,69.5c-7,0-14.2-0.5-16.8-0.9c-1.2-0.2-1.9-0.9-1.9-2.3V2.6
		c0-1.3,0.7-2.1,1.9-2.3c2.7-0.5,9.8-0.9,16.8-0.9c17.1,0,28.1,8.8,28.1,28.8v12.5C448.2,60.5,437.3,69.5,420.1,69.5z M439.8,28.1
		c0-16.8-8.5-21.6-19.6-21.6c-4.4,0-7.2,0.1-10.3,0.3V62c3,0.2,5.9,0.2,10.3,0.2c11.1,0,19.6-4.9,19.6-21.6V28.1z M496.2,69
		c-3.5,0.4-12.6,0.5-18.1,0.5c-13,0-19.7-4.9-19.7-17.2V16.6c0-12.3,6.8-17.2,19.7-17.2c5.5,0,14.2,0.2,18.1,0.5
		c0.6,0.1,0.9,0.7,0.9,1.3v4.6c0,0.7-0.4,1.1-1,1.1h-17.9c-9.8,0-11.4,2.6-11.4,9.6v12.9h28.4c1,0,1.9,0.8,1.9,1.9v3.5
		c0,1-0.8,1.9-1.9,1.9h-28.4v15.6c0,7,1.6,9.6,11.4,9.6h17.9c0.6,0,1,0.5,1,1.1v4.7C497.1,68.3,496.7,68.9,496.2,69z M552.9,68.8
		H547c-1.1,0-1.7,0-2.4-1.2L528,40c-0.3,0-0.6,0-0.8,0c-0.6,0-1,0-1.6,0c-3.1,0-5.3-0.1-10.2-0.3V67c0,0.9-0.7,1.9-1.7,1.9h-5
		c-0.9,0-1.7-0.8-1.7-1.9V2.1c0-1.3,0.6-1.9,2.2-2c4-0.5,10.9-0.7,16.3-0.7c14.6,0,25.9,4.9,25.9,19.9v0.6
		c0,10.4-6.1,16.5-14.5,18.7l16.8,28.2c0.2,0.3,0.3,0.6,0.3,0.8C554.1,68.3,553.7,68.8,552.9,68.8z M543.2,19.3
		c0-9.3-6-12.3-17.6-12.3c-2.9,0-8,0-10.2,0.3v25.4c4.1,0.1,8,0.2,10.2,0.2c11.4,0,17.6-2.9,17.6-12.9V19.3z"/>
</g>
</svg>
