<?xml version="1.0" encoding="utf-8"?>
<!-- Generator: Adobe Illustrator 19.2.0, SVG Export Plug-In . SVG Version: 6.00 Build 0)  -->
<svg version="1.1" id="Layer_1" xmlns="http://www.w3.org/2000/svg" xmlns:xlink="http://www.w3.org/1999/xlink" x="0px" y="0px"
	 viewBox="0 0 280 49.2" style="enable-background:new 0 0 280 49.2;" xml:space="preserve">
<style type="text/css">
	.st0{fill:#F9A51A;}
	.st1{fill:none;stroke:#F9A51A;stroke-width:2.7528;}
</style>
<path id="XMLID_12_" d="M9.4,40.9H9c-0.4,0-0.7-0.4-0.7-0.8v-31c0-0.4,0.3-0.8,0.7-0.8h0.4c0.4,0,0.7,0.4,0.7,0.8v31
	C10.2,40.5,9.9,40.9,9.4,40.9z M36.2,41.2L36.2,41.2c-0.7,0-1.1,0-1.5-0.3c-0.3-0.2-0.6-0.6-0.8-1L19.1,10.1
	C19,10,18.9,9.8,18.7,9.8c-0.1,0-0.2,0.1-0.2,0.3v29.9c0,0.4-0.3,0.8-0.7,0.8h-0.4c-0.4,0-0.7-0.4-0.7-0.8V10.1
	c0-1.3,0.9-2.2,2.2-2.2c1.2,0,1.7,0.5,2.1,1.4L35.6,39c0.1,0.2,0.2,0.3,0.4,0.3c0.2,0,0.2-0.2,0.2-0.4V9.1c0-0.4,0.3-0.8,0.7-0.8
	h0.5c0.5,0,0.7,0.4,0.7,0.8v29.9C38.2,40.4,37.3,41.2,36.2,41.2z M61.8,10h-9.4v30.1c0,0.4-0.3,0.8-0.7,0.8h-0.4
	c-0.4,0-0.8-0.4-0.8-0.8V10H41c-0.5,0-0.8-0.2-0.8-0.7V9c0-0.4,0.4-0.7,0.8-0.7h20.8c0.5,0,0.8,0.3,0.8,0.7v0.4
	C62.7,9.8,62.3,10,61.8,10z M81.8,40.9H70.4c-3.3,0-5.3-1.2-5.3-4.9V13.1c0-3.7,2-4.9,5.3-4.9h11.4c0.5,0,0.8,0.3,0.8,0.7v0.4
	c0,0.4-0.4,0.7-0.8,0.7H70.4c-2.1,0-3.4,0.4-3.4,3.1v9.7h14.7c0.5,0,0.8,0.3,0.8,0.7V24c0,0.4-0.4,0.7-0.8,0.7H67V36
	c0,2.7,1.3,3.1,3.4,3.1h11.4c0.5,0,0.8,0.3,0.8,0.7v0.4C82.6,40.6,82.3,40.9,81.8,40.9z M102.8,40.9h-10c-3.3,0-5.3-1.2-5.3-4.9V9.1
	c0-0.4,0.3-0.8,0.7-0.8h0.4c0.4,0,0.7,0.4,0.7,0.8V36c0,2.7,1.3,3.1,3.4,3.1h10c0.5,0,0.8,0.3,0.8,0.7v0.4
	C103.6,40.6,103.3,40.9,102.8,40.9z M123,40.9h-10c-3.3,0-5.3-1.2-5.3-4.9V9.1c0-0.4,0.3-0.8,0.7-0.8h0.4c0.4,0,0.7,0.4,0.7,0.8V36
	c0,2.7,1.3,3.1,3.4,3.1h10c0.5,0,0.8,0.3,0.8,0.7v0.4C123.8,40.6,123.5,40.9,123,40.9z M129.4,40.9H129c-0.4,0-0.7-0.4-0.7-0.8v-31
	c0-0.4,0.3-0.8,0.7-0.8h0.4c0.4,0,0.7,0.4,0.7,0.8v31C130.1,40.5,129.8,40.9,129.4,40.9z"/>
<path id="XMLID_3_" class="st0" d="M154,25.6h-13.5v14.4c0,0.5-0.4,0.9-0.9,0.9h-2.2c-0.5,0-0.9-0.4-0.9-0.9v-24
	c0-5.9,3.2-8.2,9.4-8.2c2.6,0,6.7,0.1,8.6,0.3c0.3,0,0.4,0.4,0.4,0.6V11c0,0.3-0.2,0.5-0.5,0.5h-8.5c-4.7,0-5.4,1.2-5.4,4.6v6.1H154
	c0.5,0,0.9,0.4,0.9,0.9v1.7C154.8,25.3,154.5,25.6,154,25.6z M163.3,40.9h-2.4c-0.4,0-0.8-0.4-0.8-0.9v-31c0-0.4,0.3-0.8,0.8-0.8
	h2.4c0.4,0,0.8,0.4,0.8,0.8v31C164,40.5,163.7,40.9,163.3,40.9z M192,40.9h-2.7c-0.7,0-1.2-0.3-1.4-0.7l-13.6-25.8
	c0-0.1-0.1-0.1-0.1-0.1c0,0,0,0,0,0.1v25.7c0,0.4-0.3,0.8-0.8,0.8H171c-0.4,0-0.8-0.1-0.8-0.5v-31c0-0.7,0.6-1.2,1.3-1.2h2.4
	c1.2,0,1.5,0.2,1.8,0.9l13.5,25.7l0.1,0.1c0,0,0-0.1,0-0.1V9.1c0-0.4,0.3-0.8,0.8-0.8h2.3c0.5,0,0.8,0.4,0.8,0.8v30.6
	C193.3,40.4,192.8,40.9,192,40.9z M208,41.2c-3.3,0-6.7-0.2-8-0.4c-0.6-0.1-0.9-0.4-0.9-1.1V9.4c0-0.6,0.4-1,0.9-1.1
	c1.3-0.2,4.7-0.4,8-0.4c8.1,0,13.3,4.2,13.3,13.7v5.9C221.4,37,216.2,41.2,208,41.2z M217.4,21.6c0-8-4-10.3-9.3-10.3
	c-2.1,0-3.4,0-4.9,0.1v26.2c1.4,0.1,2.8,0.1,4.9,0.1c5.3,0,9.3-2.3,9.3-10.3V21.6z M244.2,41c-1.7,0.2-6,0.2-8.6,0.2
	c-6.2,0-9.4-2.3-9.4-8.2v-17c0-5.9,3.2-8.2,9.4-8.2c2.6,0,6.7,0.1,8.6,0.3c0.3,0,0.4,0.4,0.4,0.6V11c0,0.3-0.2,0.5-0.5,0.5h-8.5
	c-4.7,0-5.4,1.2-5.4,4.6v6.1h13.5c0.5,0,0.9,0.4,0.9,0.9v1.7c0,0.5-0.4,0.9-0.9,0.9h-13.5V33c0,3.3,0.7,4.6,5.4,4.6h8.5
	c0.3,0,0.5,0.2,0.5,0.5v2.2C244.6,40.7,244.4,41,244.2,41z M271.2,40.9h-2.8c-0.5,0-0.8,0-1.1-0.6l-7.9-13.1c-0.1,0-0.3,0-0.4,0
	c-0.3,0-0.5,0-0.7,0c-1.5,0-2.5,0-4.8-0.1v13c0,0.4-0.3,0.9-0.8,0.9h-2.4c-0.4,0-0.8-0.4-0.8-0.9V9.2c0-0.6,0.3-0.9,1.1-1
	c1.9-0.2,5.2-0.4,7.8-0.4c7,0,12.3,2.3,12.3,9.5v0.3c0,4.9-2.9,7.8-6.9,8.9l8,13.4c0.1,0.1,0.1,0.3,0.1,0.4
	C271.7,40.7,271.5,40.9,271.2,40.9z M266.5,17.4c0-4.4-2.9-5.9-8.4-5.9c-1.4,0-3.8,0-4.8,0.1v12.1c1.9,0,3.8,0.1,4.8,0.1
	c5.4,0,8.4-1.4,8.4-6.1V17.4z"/>
<path id="XMLID_2_" class="st1" d="M270.4,47.8H9.6c-4.5,0-8.2-3.7-8.2-8.2v-30c0-4.5,3.7-8.2,8.2-8.2h260.8c4.5,0,8.2,3.7,8.2,8.2
	v30C278.6,44.1,274.9,47.8,270.4,47.8z"/>
</svg>
