<?xml version="1.0" encoding="utf-8"?>
<!-- Generator: Adobe Illustrator 19.0.0, SVG Export Plug-In . SVG Version: 6.00 Build 0)  -->
<svg version="1.1" id="Layer_1" xmlns="http://www.w3.org/2000/svg" xmlns:xlink="http://www.w3.org/1999/xlink" x="0px" y="0px"
	 viewBox="0 0 267.3 163.4" style="enable-background:new 0 0 267.3 163.4;" xml:space="preserve">
<style type="text/css">
	.st0{fill:#FFFFFF;}
</style>
<g id="XMLID_1_">
	<path id="XMLID_3_" class="st0" d="M49.4,0v35.5H112v23.5H49.4v55c0,15.1,4.2,23,16.4,23c5.5,0,43.4,0.5,46.2-0.2v25.8
		c-4.7,1.8-46.2,0-56.4,0c-11.7,0-21.6-3.8-27.5-10.2c-6.8-7.2-9.9-18.4-9.9-34.8V59.1H0V35.5h18.2V7.4L49.4,0z"/>
	<path id="XMLID_5_" class="st0" d="M80.8,73.8c0-14.5-0.3-26.8-1-37.7h27.5l1.3,18.7h0.8c6.2-9.9,17.7-21.6,39-21.6
		c16.6,0,29.6,9.4,35.1,23.4h0.5c4.4-7,9.6-12.2,15.6-15.8c7-4.9,15.1-7.5,25.5-7.5c21,0,42.3,14.3,42.3,54.8v74.6h-31.2V92.7
		c0-21-7.3-33.5-22.6-33.5c-10.9,0-19,7.8-22.3,16.9c-0.8,3.1-1.6,7-1.6,10.7v75.9h-31.2V89.4c0-17.7-7-30.1-21.8-30.1
		c-12,0-20,9.4-22.9,18.2c-1.3,3.1-1.8,6.8-1.8,10.4v74.8H80.8V73.8z"/>
</g>
</svg>
