<?xml version="1.0" encoding="utf-8"?>
<!-- Generator: Adobe Illustrator 19.0.0, SVG Export Plug-In . SVG Version: 6.00 Build 0)  -->
<svg version="1.1" id="Layer_1" xmlns="http://www.w3.org/2000/svg" xmlns:xlink="http://www.w3.org/1999/xlink" x="0px" y="0px"
	 viewBox="0 0 42.2 42.2" style="enable-background:new 0 0 42.2 42.2;" xml:space="preserve">
<style type="text/css">
	.st0{fill:#F59D32;}
	.st1{fill:#FFFFFF;}
</style>
<g id="XMLID_236_">
	<circle id="XMLID_250_" class="st0" cx="21.1" cy="21.1" r="21.1"/>
	<g id="XMLID_246_">
		<path id="XMLID_249_" class="st1" d="M4.2,21.8c0.1-1.7,0.3-3.4,0.8-5c0.6-2,1.5-3.8,2.8-5.5c1.2-1.6,2.6-2.9,4.1-4.1
			c1.6-1.2,3.4-2.1,5.4-2.6c1-0.3,2.1-0.5,3.1-0.6c0.7-0.1,1.4-0.1,2-0.1c1,0,1.8,0.5,2.1,1.4c0.5,1.2-0.3,2.7-1.6,2.9
			C22.6,8,22.1,8,21.7,8c-1.6,0.1-3.1,0.4-4.5,1c-1.9,0.8-3.6,1.9-5,3.4c-1.6,1.7-2.7,3.7-3.3,5.9c-0.3,1.2-0.5,2.4-0.5,3.7
			c0,1.1-0.8,2-1.9,2.2c-1.2,0.2-2.2-0.7-2.4-1.7C4.2,22.3,4.2,22,4.2,21.8z"/>
		<path id="XMLID_247_" class="st1" d="M12.7,22.1c0.1-2.7,1-4.9,2.9-6.8c1.5-1.5,3.3-2.5,5.4-2.9c0.7-0.1,1.4-0.2,2.1-0.1
			c0.9,0.1,1.7,1,1.8,1.9c0.1,1.1-0.7,2-1.6,2.2c-0.3,0.1-0.7,0.1-1,0.1c-1.8,0.2-3.2,1-4.3,2.5c-0.7,1-1.1,2.1-1.1,3.4
			c0,1.1-0.9,2-2,2.1c-1,0.1-2-0.7-2.2-1.7C12.7,22.4,12.7,22.3,12.7,22.1z"/>
	</g>
	<path id="XMLID_245_" class="st1" d="M20.8,38h2.5c0.3,0,0.5-0.2,0.5-0.5V20.8c0-0.3-0.2-0.5-0.5-0.5c-0.9,0-2.5,0.4-3,2.7
		c0,0,0,0.1,0,0.1v14.5C20.3,37.8,20.6,38,20.8,38z"/>
	<path id="XMLID_244_" class="st1" d="M25.9,38H28c0.2,0,0.4-0.2,0.4-0.5V20.8c0-0.3-0.2-0.5-0.4-0.5c-0.7,0-2.1,0.4-2.5,2.7
		c0,0,0,0.1,0,0.1v14.5C25.5,37.8,25.7,38,25.9,38z"/>
	<path id="XMLID_243_" class="st1" d="M33.9,28h-5.1c-0.2,0-0.4-0.2-0.4-0.4v-4c0-0.2,0.2-0.4,0.4-0.4l5.6,0c0.1,0,0.1,0,0.2,0
		c1.2-0.4,1.4-1.9,1.4-2.5c0-0.2-0.1-0.4-0.3-0.4h-7.3h-1.8H26c-0.3,0-0.5,0.2-0.5,0.5l0,16.8c0,0.3,0.2,0.5,0.5,0.5
		c0.9,0,2-0.4,2.4-2.7c0,0,0-0.1,0-0.1l0-4.2c0-0.2,0.2-0.4,0.4-0.4l3.9,0c0,0,0,0,0.1,0c1.2-0.3,1.4-1.6,1.5-2.2
		C34.2,28.2,34.1,28,33.9,28z"/>
</g>
</svg>
