<?xml version="1.0" encoding="utf-8"?>
<!-- Generator: Adobe Illustrator 19.0.0, SVG Export Plug-In . SVG Version: 6.00 Build 0)  -->
<svg version="1.1" id="Layer_1" xmlns="http://www.w3.org/2000/svg" xmlns:xlink="http://www.w3.org/1999/xlink" x="0px" y="0px"
	 viewBox="0 0 63 88.5" style="enable-background:new 0 0 63 88.5;" xml:space="preserve">
<style type="text/css">
	.st0{opacity:8.000000e-002;fill:#4A2911;}
	.st1{fill:#F4F4F4;}
	.st2{opacity:7.000000e-002;}
	.st3{clip-path:url(#XMLID_10_);fill:#221F1F;}
	.st4{fill:#F59D32;}
	.st5{fill:#FFFFFF;}
</style>
<g id="XMLID_234_">
	<ellipse id="XMLID_261_" class="st0" cx="31.5" cy="85.5" rx="31.5" ry="3"/>
	<path id="XMLID_258_" class="st1" d="M55,26.7c0,13.7-24.9,50.4-24.9,50.4S5.3,40.5,5.3,26.7S16.4,1.9,30.1,1.9S55,13,55,26.7z"/>
	<g id="XMLID_252_" class="st2">
		<defs>
			<rect id="XMLID_255_" x="30.1" y="0" class="st2" width="24.9" height="77.1"/>
		</defs>
		<clipPath id="XMLID_10_">
			<use xlink:href="#XMLID_255_"  style="overflow:visible;"/>
		</clipPath>
		<path id="XMLID_257_" class="st3" d="M54.9,25.4c0-13.7-11.1-24.9-24.9-24.9S5.2,11.7,5.2,25.4c0,0.2,0,0.4,0,0.7
			c0,0.2,0,0.4,0,0.7c0,13.7,24.9,50.4,24.9,50.4s24.9-36.6,24.9-50.4c0-0.2,0-0.4,0-0.7C54.9,25.9,54.9,25.7,54.9,25.4z"/>
	</g>
	<g id="XMLID_236_">
		<circle id="XMLID_250_" class="st4" cx="30.1" cy="26.2" r="21.1"/>
		<g id="XMLID_246_">
			<path id="XMLID_249_" class="st5" d="M13.2,26.9c0.1-1.7,0.3-3.4,0.8-5c0.6-2,1.5-3.8,2.8-5.5c1.2-1.6,2.6-2.9,4.1-4.1
				c1.6-1.2,3.4-2.1,5.4-2.6c1-0.3,2.1-0.5,3.1-0.6c0.7-0.1,1.4-0.1,2-0.1c1,0,1.8,0.5,2.1,1.4c0.5,1.2-0.3,2.7-1.6,2.9
				c-0.4,0.1-0.8,0.1-1.3,0.1c-1.6,0.1-3.1,0.4-4.5,1c-1.9,0.8-3.6,1.9-5,3.4c-1.6,1.7-2.7,3.7-3.3,5.9c-0.3,1.2-0.5,2.4-0.5,3.7
				c0,1.1-0.8,2-1.9,2.2c-1.2,0.2-2.2-0.7-2.4-1.7C13.2,27.4,13.2,27.1,13.2,26.9z"/>
			<path id="XMLID_247_" class="st5" d="M21.7,27.2c0.1-2.7,1-4.9,2.9-6.8c1.5-1.5,3.3-2.5,5.4-2.9c0.7-0.1,1.4-0.2,2.1-0.1
				c0.9,0.1,1.7,1,1.8,1.9c0.1,1.1-0.7,2-1.6,2.2c-0.3,0.1-0.7,0.1-1,0.1c-1.8,0.2-3.2,1-4.3,2.5c-0.7,1-1.1,2.1-1.1,3.4
				c0,1.1-0.9,2-2,2.1c-1,0.1-2-0.7-2.2-1.7C21.7,27.6,21.7,27.4,21.7,27.2z"/>
		</g>
		<path id="XMLID_245_" class="st5" d="M29.9,43.1h2.5c0.3,0,0.5-0.2,0.5-0.5V25.9c0-0.3-0.2-0.5-0.5-0.5c-0.9,0-2.5,0.4-3,2.7
			c0,0,0,0.1,0,0.1v14.5C29.4,42.9,29.6,43.1,29.9,43.1z"/>
		<path id="XMLID_244_" class="st5" d="M34.9,43.1h2.1c0.2,0,0.4-0.2,0.4-0.5V25.9c0-0.3-0.2-0.5-0.4-0.5c-0.7,0-2.1,0.4-2.5,2.7
			c0,0,0,0.1,0,0.1v14.5C34.5,42.9,34.7,43.1,34.9,43.1z"/>
		<path id="XMLID_243_" class="st5" d="M43,33.2h-5.1c-0.2,0-0.4-0.2-0.4-0.4v-4c0-0.2,0.2-0.4,0.4-0.4l5.6,0c0.1,0,0.1,0,0.2,0
			c1.2-0.4,1.4-1.9,1.4-2.5c0-0.2-0.1-0.4-0.3-0.4h-7.3h-1.8H35c-0.3,0-0.5,0.2-0.5,0.5l0,16.8c0,0.3,0.2,0.5,0.5,0.5
			c0.9,0,2-0.4,2.4-2.7c0,0,0-0.1,0-0.1v-4.2c0-0.2,0.2-0.4,0.4-0.4l3.9,0c0,0,0,0,0.1,0c1.2-0.3,1.4-1.6,1.5-2.2
			C43.3,33.3,43.1,33.2,43,33.2z"/>
	</g>
</g>
</svg>
