<?xml version="1.0" encoding="utf-8"?>
<!-- Generator: Adobe Illustrator 19.1.0, SVG Export Plug-In . SVG Version: 6.00 Build 0)  -->
<svg version="1.1" id="Layer_1" xmlns="http://www.w3.org/2000/svg" xmlns:xlink="http://www.w3.org/1999/xlink" x="0px" y="0px"
	 viewBox="0 0 364.3 50.4" style="enable-background:new 0 0 364.3 50.4;" xml:space="preserve">
<style type="text/css">
	.st0{fill:#FFFFFF;}
</style>
<g>
	<path class="st0" d="M36.6,10.4c0,4.9-3.9,8.9-8.8,8.9c-4.8,0-8.8-4-8.8-8.9s3.9-8.9,8.8-8.9C32.7,1.5,36.6,5.5,36.6,10.4"/>
	<path class="st0" d="M39.3,23.8c1.2,7.6,1.9,10.9-0.1,13.5c-1.9,2.5-12.2-1-16.1-1.9c-0.8-0.2-1.2-0.1-1.2-0.1l-4.8,1.2l-5.9-1
		c-0.1,0-0.4,0.3,0.3,0.9c1.9,1.5,6.6,3.7,10.1,1.2c0.7-0.5,3,0.3,4.4,0.7c6.4,1.7,11.6,3.5,14.5,1.6c4.3-2.8,0.5-16,0-17.4
		C40.1,23,39.7,23.4,39.3,23.8z"/>
	<path class="st0" d="M17.2,34l-2.7-5c0-0.1,0-0.2,0.1-0.1l14.5,2.1c0.1,0,0.2,0.1,0.2,0.2l0,0.2c0,0.1-0.1,0.2-0.2,0.2l-11.7,2.5
		C17.4,34.2,17.3,34.1,17.2,34"/>
	<path class="st0" d="M16.2,34.4l-8.3-1.3c-0.1,0-0.1-0.1-0.2-0.1L0,18.4c-0.1-0.2,0.1-0.4,0.2-0.3l8,1.1c0.1,0,0.1,0.1,0.2,0.1
		l8,14.7C16.5,34.2,16.4,34.4,16.2,34.4"/>
	<g>
		<path class="st0" d="M50.6,34.6C49.1,18,42.2,13.5,40.7,13c-0.1,0.6-0.3,1.3-0.5,1.9c0,0,0,0,0,0c2.5,1.7,6.8,5.9,8.1,19.8v0.1
			c0.1,1.5,0.2,2.8,0.2,4.3c0.8-0.6,1.5-1.2,2.3-1.8C50.7,36,50.8,36.2,50.6,34.6z"/>
	</g>
</g>
<g>
	<path class="st0" d="M95.2,25.5c0,1.8-0.2,3.5-0.6,5.1c-0.4,1.6-1.1,3.1-2.1,4.3c-1,1.3-2.2,2.3-3.7,3c-1.5,0.8-3.3,1.1-5.5,1.1
		c-2.1,0-3.9-0.4-5.4-1.1c-1.5-0.7-2.7-1.7-3.7-2.9c-0.9-1.2-1.6-2.6-2-4.3c-0.4-1.6-0.6-3.4-0.6-5.2c0-1.8,0.3-3.5,0.8-5.1
		c0.5-1.6,1.3-3,2.3-4.2c1-1.2,2.3-2.2,3.7-2.9c1.5-0.7,3.2-1.1,5.3-1.1c2.1,0,3.9,0.4,5.4,1.1c1.5,0.7,2.7,1.7,3.6,2.9
		c0.9,1.2,1.6,2.6,2,4.2C94.9,22.1,95.2,23.7,95.2,25.5z M90.3,25.6c0-1.1-0.1-2.2-0.3-3.3c-0.2-1.1-0.5-2.1-1.1-3
		c-0.5-0.9-1.2-1.6-2.1-2.1c-0.9-0.5-2.1-0.8-3.5-0.8c-1.4,0-2.5,0.3-3.4,0.8c-0.9,0.5-1.6,1.2-2.2,2.1c-0.5,0.9-0.9,1.9-1.2,3
		c-0.2,1.1-0.4,2.2-0.4,3.3c0,1.1,0.1,2.2,0.3,3.4c0.2,1.1,0.6,2.2,1.1,3.1c0.5,0.9,1.3,1.7,2.2,2.3c0.9,0.6,2,0.9,3.5,0.9
		c1.4,0,2.6-0.3,3.6-0.9c0.9-0.6,1.7-1.3,2.2-2.3c0.5-0.9,0.9-1.9,1.1-3.1C90.2,27.8,90.3,26.7,90.3,25.6z"/>
	<path class="st0" d="M98.1,12.8c0.3,0,0.5-0.1,0.7-0.1c0.2,0,0.3,0,0.3,0c0.8,0,1.6,0.2,2.2,0.6c0.7,0.4,1.1,1.1,1.2,2.1
		c0.5-0.8,1.3-1.5,2.3-2.1c1-0.7,2.2-1,3.5-1c0.4,0,0.8,0,1.3,0.1c0.4,0.1,0.9,0.2,1.3,0.4c0.4,0.2,0.7,0.4,1,0.7
		c0.3,0.3,0.4,0.7,0.4,1.1c0,0.6-0.1,1.2-0.4,1.9c-0.3,0.7-0.6,1.2-0.9,1.6c-0.5-0.4-1-0.8-1.5-1c-0.5-0.2-1.2-0.4-2-0.4
		c-0.6,0-1.2,0.1-1.8,0.3c-0.6,0.2-1.1,0.5-1.5,0.8c-0.4,0.3-0.8,0.7-1,1.2c-0.3,0.4-0.4,0.9-0.4,1.3v17.9h-4.6V12.8z"/>
	<path class="st0" d="M130.8,36.1c-0.3,0.3-0.6,0.6-1.1,1c-0.4,0.4-0.9,0.7-1.5,1c-0.6,0.3-1.3,0.5-2,0.7c-0.8,0.2-1.6,0.3-2.5,0.3
		c-1.4,0-2.7-0.2-4-0.7c-1.3-0.5-2.4-1.2-3.4-2.2c-1-1-1.8-2.4-2.3-4c-0.6-1.7-0.9-3.7-0.9-6.1c0-2.4,0.3-4.4,0.9-6.1
		c0.6-1.7,1.4-3.1,2.4-4.2c1-1.1,2.1-1.9,3.5-2.5c1.3-0.5,2.7-0.8,4.1-0.8c1.6,0,3,0.3,4.1,0.8c1.1,0.5,2.1,1.2,2.8,1.8V0.1
		c0.3,0,0.5-0.1,0.6-0.1c0.2,0,0.3,0,0.4,0c1.1,0,1.9,0.3,2.6,0.8c0.7,0.5,1,1.5,1,2.9v34.6h-4.5V36.1z M130.7,19L130.7,19
		c-0.2-0.2-0.4-0.5-0.8-0.8c-0.3-0.3-0.8-0.6-1.3-0.9c-0.5-0.3-1.1-0.6-1.8-0.8c-0.7-0.2-1.5-0.3-2.3-0.3c-2,0-3.7,0.8-4.9,2.3
		c-1.2,1.5-1.8,3.8-1.8,6.9c0,1.4,0.1,2.7,0.3,3.9c0.2,1.2,0.6,2.2,1.1,3.1c0.5,0.9,1.2,1.6,2.1,2c0.9,0.5,2,0.7,3.3,0.7
		c0.9,0,1.7-0.1,2.4-0.3c0.7-0.2,1.4-0.5,1.9-0.8c0.5-0.3,1-0.7,1.2-1.1c0.3-0.4,0.4-0.9,0.4-1.3V19z"/>
	<path class="st0" d="M139.6,0.1c0.3,0,0.5-0.1,0.6-0.1c0.2,0,0.3,0,0.4,0c1.1,0,1.9,0.3,2.6,0.8c0.7,0.5,1,1.5,1,2.9v11.4
		c0.7-0.7,1.7-1.4,2.9-1.9c1.2-0.6,2.7-0.8,4.5-0.8c1.4,0,2.7,0.2,4,0.7c1.2,0.5,2.3,1.2,3.3,2.2c1,1,1.7,2.4,2.3,4
		c0.6,1.6,0.8,3.6,0.8,6c0,2.7-0.3,4.9-1,6.7c-0.7,1.8-1.5,3.2-2.6,4.2c-1.1,1-2.2,1.8-3.5,2.2c-1.3,0.4-2.6,0.6-3.8,0.6
		c-1,0-2-0.1-2.7-0.3c-0.8-0.2-1.4-0.5-2-0.8c-0.6-0.3-1-0.6-1.4-1c-0.4-0.3-0.6-0.6-0.8-0.9v2.2h-4.5V0.1z M144.2,32.2
		c0.2,0.3,0.5,0.6,0.9,0.9c0.4,0.3,0.8,0.7,1.3,0.9c0.5,0.3,1.1,0.5,1.8,0.8c0.7,0.2,1.4,0.3,2.1,0.3c2.3,0,4-0.8,5.1-2.5
		c1.1-1.6,1.7-4,1.7-7.1c0-1.3-0.1-2.5-0.4-3.7c-0.2-1.1-0.6-2.1-1.1-3c-0.5-0.8-1.2-1.5-2.1-2c-0.9-0.5-2-0.7-3.3-0.7
		c-1.8,0-3.2,0.4-4.3,1.1c-1.1,0.8-1.7,1.7-1.7,2.7V32.2z"/>
	<path class="st0" d="M188.4,25.5c0,1.8-0.2,3.5-0.6,5.1c-0.4,1.6-1.1,3.1-2.1,4.3c-1,1.3-2.2,2.3-3.7,3c-1.5,0.8-3.3,1.1-5.5,1.1
		c-2.1,0-3.9-0.4-5.4-1.1c-1.5-0.7-2.7-1.7-3.7-2.9c-0.9-1.2-1.6-2.6-2-4.3c-0.4-1.6-0.6-3.4-0.6-5.2c0-1.8,0.3-3.5,0.8-5.1
		c0.5-1.6,1.3-3,2.3-4.2c1-1.2,2.3-2.2,3.7-2.9c1.5-0.7,3.2-1.1,5.3-1.1c2.1,0,3.9,0.4,5.4,1.1c1.5,0.7,2.7,1.7,3.6,2.9
		c0.9,1.2,1.6,2.6,2,4.2C188.2,22.1,188.4,23.7,188.4,25.5z M183.5,25.6c0-1.1-0.1-2.2-0.3-3.3c-0.2-1.1-0.5-2.1-1.1-3
		c-0.5-0.9-1.2-1.6-2.1-2.1c-0.9-0.5-2.1-0.8-3.5-0.8c-1.4,0-2.5,0.3-3.4,0.8c-0.9,0.5-1.6,1.2-2.2,2.1c-0.5,0.9-0.9,1.9-1.2,3
		c-0.2,1.1-0.4,2.2-0.4,3.3c0,1.1,0.1,2.2,0.3,3.4c0.2,1.1,0.6,2.2,1.1,3.1c0.5,0.9,1.3,1.7,2.2,2.3c0.9,0.6,2,0.9,3.5,0.9
		c1.4,0,2.6-0.3,3.6-0.9c0.9-0.6,1.7-1.3,2.2-2.3c0.5-0.9,0.9-1.9,1.1-3.1C183.4,27.8,183.5,26.7,183.5,25.6z"/>
	<path class="st0" d="M208.9,36.1c-0.3,0.3-0.6,0.6-1.1,1c-0.4,0.4-0.9,0.7-1.5,1c-0.6,0.3-1.3,0.5-2,0.7c-0.8,0.2-1.6,0.3-2.5,0.3
		c-1.4,0-2.7-0.2-4-0.7c-1.3-0.5-2.4-1.2-3.4-2.2c-1-1-1.8-2.4-2.3-4c-0.6-1.7-0.9-3.7-0.9-6.1c0-2.4,0.3-4.4,0.9-6.1
		c0.6-1.7,1.3-3.1,2.3-4.2c1-1.1,2.1-1.9,3.4-2.5c1.3-0.5,2.7-0.8,4.1-0.8c1.7,0,3.2,0.3,4.3,0.8c1.1,0.5,2.1,1.2,2.8,2
		c0.2-0.8,0.6-1.4,1.2-1.8c0.6-0.4,1.3-0.6,1.9-0.6c0.2,0,0.4,0,0.6,0c0.2,0,0.5,0,0.8,0.1v23.6c0,2.2-0.2,4.1-0.6,5.8
		c-0.4,1.7-1,3.2-2,4.3c-0.9,1.2-2.2,2.1-3.8,2.7c-1.6,0.6-3.6,0.9-6,0.9c-1.7,0-3.2-0.2-4.4-0.5c-1.2-0.3-2.3-0.7-3.1-1.2
		c-0.6-0.4-1.1-0.8-1.4-1.1c-0.3-0.4-0.4-0.7-0.4-1.1c0-0.5,0.2-1,0.6-1.6c0.4-0.6,0.8-1,1.1-1.4c0.1,0.1,0.3,0.3,0.7,0.6
		c0.4,0.3,0.9,0.6,1.6,1c0.7,0.4,1.4,0.7,2.3,0.9c0.9,0.3,1.9,0.4,3,0.4c1.7,0,3.1-0.2,4.1-0.7c1-0.5,1.8-1.2,2.4-2
		c0.6-0.9,0.9-1.9,1.1-3.1c0.2-1.2,0.2-2.5,0.2-4V36.1z M208.8,19L208.8,19c-0.2-0.2-0.4-0.5-0.8-0.8c-0.3-0.3-0.8-0.6-1.3-0.9
		c-0.5-0.3-1.1-0.6-1.8-0.8c-0.7-0.2-1.5-0.3-2.3-0.3c-2,0-3.7,0.8-4.9,2.3c-1.2,1.5-1.8,3.8-1.8,6.9c0,1.4,0.1,2.7,0.3,3.9
		s0.6,2.2,1.1,3.1c0.5,0.9,1.2,1.6,2.1,2c0.9,0.5,2,0.7,3.3,0.7c0.9,0,1.7-0.1,2.4-0.3c0.7-0.2,1.4-0.5,1.9-0.8
		c0.5-0.3,1-0.7,1.2-1.1c0.3-0.4,0.4-0.9,0.4-1.3V19z"/>
	<path class="st0" d="M221,26.5c0.1,2.6,0.8,4.7,2.1,6.3c1.3,1.6,3.2,2.4,5.9,2.4c1,0,1.9-0.1,2.7-0.3c0.8-0.2,1.5-0.5,2-0.8
		c0.6-0.3,1.1-0.6,1.4-1c0.4-0.4,0.7-0.7,0.9-1c0.4,0.5,0.7,1,1.1,1.6c0.3,0.6,0.5,1,0.5,1.3c0,0.3-0.1,0.6-0.3,0.9
		c-0.2,0.3-0.5,0.6-0.9,0.9c-0.8,0.6-1.9,1.1-3.2,1.5c-1.3,0.4-2.9,0.6-4.7,0.6c-1.7,0-3.3-0.2-4.8-0.7c-1.5-0.5-2.8-1.3-3.9-2.3
		c-1.1-1.1-2-2.5-2.6-4.2c-0.6-1.7-1-3.9-1-6.4c0-2.3,0.3-4.2,1-5.9c0.7-1.7,1.5-3,2.6-4.1c1.1-1.1,2.3-1.8,3.7-2.3
		c1.4-0.5,2.8-0.8,4.3-0.8c1.8,0,3.4,0.3,4.7,0.9c1.3,0.6,2.4,1.4,3.2,2.5c0.8,1,1.4,2.2,1.8,3.6c0.4,1.3,0.6,2.7,0.6,4.2
		c0,0.5,0,1,0,1.5c0,0.5-0.1,1-0.1,1.5H221z M233.7,23c0-1-0.1-1.9-0.3-2.7c-0.2-0.8-0.5-1.6-1-2.2c-0.5-0.6-1.1-1.1-1.9-1.5
		c-0.8-0.4-1.7-0.5-2.8-0.5c-1.9,0-3.4,0.6-4.6,1.8c-1.2,1.2-1.9,2.9-2,5.1H233.7z"/>
	<path class="st0" d="M242,12.8c0.3,0,0.4-0.1,0.6-0.1c0.1,0,0.3,0,0.3,0c0.8,0,1.6,0.2,2.2,0.6c0.7,0.4,1.1,1.1,1.2,2.1
		c0.8-0.8,1.9-1.6,3.4-2.2c1.4-0.6,3.1-1,5-1c2.4,0,4.3,0.5,5.6,1.6c1.3,1.1,2.1,2.4,2.5,4c0.2,0.7,0.3,1.5,0.3,2.4
		c0,0.9,0.1,1.7,0.1,2.6v15.3h-4.6V23.1c0-0.7,0-1.3,0-2c0-0.6-0.1-1.2-0.3-1.8c-0.3-0.9-0.8-1.7-1.6-2.2c-0.8-0.5-1.9-0.8-3.5-0.8
		c-1,0-2,0.1-2.8,0.3c-0.8,0.2-1.5,0.5-2.1,0.9c-0.6,0.4-1,0.8-1.3,1.2c-0.3,0.5-0.5,0.9-0.5,1.4v18H242V12.8z"/>
	<path class="st0" d="M268.5,38.1c-0.6-0.6-0.9-1.4-0.9-2.4c0-0.9,0.3-1.7,0.9-2.4c0.6-0.6,1.3-1,2.2-1c0.9,0,1.6,0.3,2.2,1
		c0.6,0.6,0.9,1.4,0.9,2.4c0,0.9-0.3,1.7-0.9,2.4c-0.6,0.6-1.3,1-2.3,1C269.8,39.1,269.1,38.8,268.5,38.1z"/>
	<path class="st0" d="M295.6,19.3c-0.6-0.7-1.4-1.4-2.4-2c-1-0.6-2.3-0.9-3.9-0.9c-1.4,0-2.5,0.2-3.5,0.7c-1,0.5-1.8,1.1-2.4,2
		c-0.6,0.8-1.1,1.8-1.4,3c-0.3,1.1-0.4,2.3-0.4,3.6c0,1.3,0.1,2.6,0.4,3.7c0.3,1.2,0.7,2.2,1.4,3c0.6,0.9,1.4,1.5,2.5,2
		c1,0.5,2.2,0.8,3.6,0.8c1,0,1.8-0.2,2.6-0.5c0.8-0.3,1.4-0.7,2-1.1c0.7-0.5,1.3-1,1.7-1.5c0.1,0.1,0.3,0.3,0.5,0.6
		c0.2,0.2,0.4,0.5,0.6,0.8c0.2,0.3,0.4,0.5,0.5,0.8c0.1,0.3,0.2,0.6,0.2,0.8c0,0.5-0.4,1.1-1.1,1.7c-0.7,0.6-1.7,1.1-2.9,1.6
		c-1.3,0.4-2.8,0.6-4.7,0.6c-1.2,0-2.4-0.2-3.8-0.5c-1.4-0.3-2.7-1-3.9-1.9c-1.2-1-2.2-2.3-3-4.1c-0.8-1.7-1.2-4.1-1.2-6.9
		c0-2.7,0.4-4.9,1.3-6.6s1.9-3.1,3.2-4.1c1.3-1,2.6-1.7,4-2.1c1.4-0.4,2.7-0.6,3.7-0.6c1.3,0,2.5,0.1,3.5,0.4c1,0.3,1.9,0.6,2.6,1
		c0.7,0.4,1.3,0.9,1.7,1.3c0.4,0.5,0.6,0.9,0.6,1.3c0,0.4-0.1,0.9-0.4,1.5c-0.3,0.5-0.6,1-0.9,1.4H295.6z"/>
	<path class="st0" d="M324.2,25.5c0,1.8-0.2,3.5-0.6,5.1c-0.4,1.6-1.1,3.1-2.1,4.3c-1,1.3-2.2,2.3-3.7,3c-1.5,0.8-3.3,1.1-5.5,1.1
		c-2.1,0-3.9-0.4-5.4-1.1c-1.5-0.7-2.7-1.7-3.7-2.9c-0.9-1.2-1.6-2.6-2-4.3c-0.4-1.6-0.6-3.4-0.6-5.2c0-1.8,0.3-3.5,0.8-5.1
		c0.5-1.6,1.3-3,2.3-4.2c1-1.2,2.3-2.2,3.7-2.9c1.5-0.7,3.2-1.1,5.3-1.1c2.1,0,3.9,0.4,5.4,1.1c1.5,0.7,2.7,1.7,3.6,2.9
		c0.9,1.2,1.6,2.6,2,4.2C324,22.1,324.2,23.7,324.2,25.5z M319.4,25.6c0-1.1-0.1-2.2-0.3-3.3c-0.2-1.1-0.5-2.1-1.1-3
		c-0.5-0.9-1.2-1.6-2.1-2.1c-0.9-0.5-2.1-0.8-3.5-0.8c-1.4,0-2.5,0.3-3.4,0.8c-0.9,0.5-1.6,1.2-2.2,2.1c-0.5,0.9-0.9,1.9-1.2,3
		c-0.2,1.1-0.4,2.2-0.4,3.3c0,1.1,0.1,2.2,0.3,3.4c0.2,1.1,0.6,2.2,1.1,3.1c0.5,0.9,1.3,1.7,2.2,2.3c0.9,0.6,2,0.9,3.5,0.9
		c1.4,0,2.6-0.3,3.6-0.9c0.9-0.6,1.7-1.3,2.2-2.3c0.5-0.9,0.9-1.9,1.1-3.1C319.3,27.8,319.4,26.7,319.4,25.6z"/>
	<path class="st0" d="M328.2,12.8c0.3,0,0.5-0.1,0.7-0.1c0.2,0,0.3,0,0.4,0c0.9,0,1.7,0.2,2.3,0.7c0.6,0.4,1,1.1,1.1,2.1
		c0.8-0.9,1.9-1.6,3.3-2.2c1.3-0.6,2.9-0.9,4.8-0.9c0.6,0,1.3,0.1,2,0.2c0.7,0.1,1.3,0.3,2,0.6c0.6,0.3,1.2,0.6,1.8,1.1
		c0.5,0.4,1,0.9,1.3,1.5c0.8-0.9,1.9-1.7,3.4-2.3c1.4-0.7,3-1,4.9-1c2.4,0,4.2,0.5,5.5,1.6c1.3,1.1,2.1,2.4,2.5,4
		c0.2,0.7,0.3,1.5,0.3,2.4c0,0.9,0.1,1.7,0.1,2.6v15.3h-4.6V23.1c0-0.7,0-1.3,0-2c0-0.6-0.1-1.2-0.3-1.8c-0.3-0.9-0.8-1.7-1.5-2.2
		c-0.8-0.5-1.9-0.8-3.6-0.8c-1.2,0-2.3,0.3-3.3,0.8c-1,0.5-1.8,1.1-2.3,1.7c0.1,0.6,0.1,1.2,0.2,1.9c0,0.7,0.1,1.4,0.1,2.1v15.4
		h-4.6V23.1c0-0.8,0-1.5-0.1-2.1c-0.1-0.7-0.2-1.3-0.4-1.8c-0.6-1.8-2.2-2.7-4.9-2.7c-0.8,0-1.6,0.1-2.3,0.3c-0.7,0.2-1.4,0.5-2,0.9
		c-0.6,0.4-1,0.8-1.4,1.2c-0.4,0.4-0.5,0.9-0.5,1.3v18.1h-4.6V12.8z"/>
</g>
</svg>
