<?xml version="1.0" encoding="utf-8"?>
<!-- Generator: Adobe Illustrator 19.0.0, SVG Export Plug-In . SVG Version: 6.00 Build 0)  -->
<svg version="1.1" id="Layer_1" xmlns="http://www.w3.org/2000/svg" xmlns:xlink="http://www.w3.org/1999/xlink" x="0px" y="0px"
	 viewBox="-190 -33.5 577.5 627.5" style="enable-background:new -190 -33.5 577.5 627.5;" xml:space="preserve">
<style type="text/css">
	.st0{fill:#69C773;}
</style>
<path id="XMLID_1_" class="st0" d="M89.3,277c1.2,0.5,2.4,0.9,3.7,1.4c-10.3,33.8-20,67.8-31.3,101.2c-2.3,6.9-9.7,12.4-15.6,17.7
	c-18.9,17.1-22.8,42.2-9.3,62.4c13.4,20.1,39.5,26.7,61,15.5c21.9-11.4,30.5-34.7,21.8-58.9c-9.7-27.2,11.3-92.2,36-105.5
	c5.8-3.1,20.6-0.4,23.6,4.5c6.3,10,9.7,23.1,10.4,35.1c1.3,21.1,10.1,36.3,29.9,42.3c19.6,6,37.1-0.1,48.2-18.4
	c11.2-18.4,7-35.4-6.6-51C245.5,305.4,229,288,215,268.9c-18-24.7-20.6-52.8-6.7-80.1c13.4-26.4,28.6-52.1,44.7-77
	c16.4-25.4,44-40.7,60.5-32.6c32.2,15.7,71.7,28,72.7,72.6c1.9,85.5,1,171.2,0.2,256.7c-0.2,22.3-12.8,39.6-32,50.6
	c-74.2,42.3-148.5,84.2-223,125.9c-21.7,12.2-44.4,11.9-66-0.2c-74.5-41.7-149-83.5-223.1-125.8c-21.5-12.4-32.3-31.8-32.3-57.2
	c0.1-81.1,0.2-162.2,0-243.4c-0.1-26.3,11.4-45.9,33.8-58.6C-83.9,58.8-10.9,18.9,61-22.9c41.8-24.3,77.8-2.5,107.2,21.4
	c6,4.9,8.2,17.5,8.1,26.5c-0.5,51.1-67.3,137.4-117,147.2c-25,4.9-51.8,2.7-77.6,1c-20.1-1.3-36.2,3.2-44.4,21.8
	c-7.2,16.3-4.1,32.8,11.2,43.9c16.5,12,32.3,9.8,49-2.5c8.9-6.6,21.6-8.5,32.9-11.4c13.3-3.3,26.9-5.3,40.4-7.9
	c1.3,1.7,2.5,3.3,3.7,5C37,244-0.3,266.3-38.1,287.6c-17,9.6-27.8,21.8-26.4,42.4c1.4,19.6,12.3,31.9,30.4,36.6
	c19.1,4.9,33.9-2.2,46.5-18.2c13.1-16.7,28.4-31.8,43.8-46.5C56.2,301.9,79.1,282.7,89.3,277z"/>
</svg>
